<?xml version="1.0" encoding="utf-8"?>
<!-- Generator: Adobe Illustrator 24.0.1, SVG Export Plug-In . SVG Version: 6.00 Build 0)  -->
<svg version="1.1" id="Ebene_1" xmlns="http://www.w3.org/2000/svg" xmlns:xlink="http://www.w3.org/1999/xlink" x="0px" y="0px"
	 viewBox="0 0 47.37 43.12" style="enable-background:new 0 0 47.37 43.12;" xml:space="preserve">
<style type="text/css">
	.st0{display:none;}
	.st1{display:inline;}
	.st2{fill:#00964B;}
	.st3{fill:#00D74B;}
	.st4{fill:#FFFFFF;}
	.st5{fill:none;stroke:#00964B;stroke-width:1.4474;stroke-miterlimit:10;}
	.st6{display:inline;fill:none;stroke:#00964B;stroke-width:1.5;stroke-miterlimit:10;}
	.st7{display:inline;fill:none;stroke:#00964B;stroke-width:1.2;stroke-miterlimit:10;}
	.st8{display:inline;fill:#00964B;}
	
		.st9{display:inline;fill:none;stroke:#00964B;stroke-width:2.4874;stroke-linecap:round;stroke-linejoin:round;stroke-miterlimit:10;}
	
		.st10{display:inline;fill:none;stroke:#00964B;stroke-width:1.8;stroke-linecap:round;stroke-linejoin:round;stroke-miterlimit:10;}
	
		.st11{display:inline;fill:none;stroke:#00964B;stroke-width:1.62;stroke-linecap:round;stroke-linejoin:round;stroke-miterlimit:10;}
	.st12{fill:#00BE4B;}
	.st13{fill:#8CFA50;}
	.st14{fill:none;stroke:#00BE4B;stroke-width:1.4474;stroke-miterlimit:10;}
	.st15{fill:none;stroke:#00BE4B;stroke-width:1.5;stroke-miterlimit:10;}
	.st16{display:inline;fill:none;stroke:#00BE4B;stroke-width:1.5;stroke-miterlimit:10;}
	.st17{display:inline;fill:#00BE4B;}
	
		.st18{display:inline;fill:none;stroke:#00BE4B;stroke-width:2.4874;stroke-linecap:round;stroke-linejoin:round;stroke-miterlimit:10;}
	.st19{display:inline;fill:none;stroke:#00BE4B;stroke-width:1.2;stroke-miterlimit:10;}
	.st20{fill:#F0B414;}
	.st21{fill:#FFEB0A;}
	.st22{display:inline;fill:none;stroke:#F0B414;stroke-width:1.5;stroke-miterlimit:10;}
	.st23{display:inline;fill:#F0B414;}
	.st24{display:inline;fill:none;stroke:#F0B414;stroke-width:1.2;stroke-miterlimit:10;}
	.st25{display:inline;fill:none;stroke:#F0B414;stroke-width:1.5;stroke-linecap:round;stroke-miterlimit:10;}
	.st26{fill:none;stroke:#F0B414;stroke-width:1.5;stroke-linecap:round;stroke-linejoin:round;stroke-miterlimit:10;}
	.st27{fill:none;stroke:#F0B414;stroke-width:2.4;stroke-linecap:round;stroke-linejoin:round;stroke-miterlimit:10;}
	.st28{display:inline;fill:#E68C00;}
	.st29{display:inline;fill:#FFBE00;}
	.st30{display:inline;fill:#FFFFFF;}
	.st31{display:inline;fill:none;stroke:#E68C00;stroke-width:1.5;stroke-miterlimit:10;}
	.st32{display:inline;fill:none;stroke:#E68C00;stroke-width:1.2;stroke-miterlimit:10;}
	.st33{fill:none;stroke:#E68C00;stroke-width:2.4;stroke-linecap:round;stroke-linejoin:round;stroke-miterlimit:10;}
	.st34{display:inline;fill:none;stroke:#E68C00;stroke-width:1.5;stroke-linecap:round;stroke-miterlimit:10;}
	.st35{fill:#AF0028;}
	.st36{fill:#FF1E32;}
	.st37{fill:none;stroke:#AF0028;stroke-width:1.5;stroke-miterlimit:10;}
	.st38{fill:none;stroke:#AF0028;stroke-width:1.2;stroke-miterlimit:10;}
	.st39{fill:none;stroke:#AF0028;stroke-width:2.1637;stroke-linecap:round;stroke-linejoin:round;stroke-miterlimit:10;}
	.st40{fill:none;stroke:#AF0028;stroke-width:1.4244;stroke-linecap:round;stroke-linejoin:round;stroke-miterlimit:10;}
	.st41{fill:none;stroke:#AF0028;stroke-width:1.0362;stroke-linecap:round;stroke-linejoin:round;stroke-miterlimit:10;}
	.st42{fill:none;stroke:#AF0028;stroke-width:1.44;stroke-linecap:round;stroke-linejoin:round;stroke-miterlimit:10;}
	.st43{fill:#EDF0F5;}
	.st44{display:inline;fill:#EDF0F5;}
	.st45{display:inline;fill:#AF0028;}
	.st46{display:inline;fill:none;stroke:#AF0028;stroke-width:1.5;stroke-miterlimit:10;}
	.st47{display:inline;fill:none;stroke:#AF0028;stroke-width:1.2;stroke-miterlimit:10;}
	
		.st48{display:inline;fill:none;stroke:#AF0028;stroke-width:1.44;stroke-linecap:round;stroke-linejoin:round;stroke-miterlimit:10;}
</style>
<g class="st0">
	<g class="st1">
		<path class="st2" d="M39.55,25.16c0,8.72-7.07,15.79-15.79,15.79c-8.72,0-15.79-7.07-15.79-15.79S15.03,9.37,23.75,9.37
			C32.47,9.37,39.55,16.44,39.55,25.16z"/>
		<path class="st3" d="M37.81,25.16c0,7.76-6.29,14.06-14.06,14.06c-7.76,0-14.06-6.29-14.06-14.06c0-7.76,6.29-14.06,14.06-14.06
			C31.52,11.11,37.81,17.4,37.81,25.16z"/>
		<path class="st4" d="M11.34,25.16c0-5.66,2.96-10.58,7.33-13.11c-5.25,2.04-8.97,7.14-8.97,13.11c0,5.97,3.72,11.07,8.97,13.11
			C14.3,35.74,11.34,30.82,11.34,25.16z"/>
		<path class="st5" d="M21.07,24.46c0.01-0.11,0.02-0.22,0.02-0.33c0-1.68-1.36-3.04-3.04-3.04c-1.68,0-3.04,1.36-3.04,3.04
			c0,0.11,0.01,0.22,0.02,0.33"/>
		<path class="st5" d="M32.58,24.46c0.01-0.11,0.02-0.22,0.02-0.33c0-1.68-1.36-3.04-3.04-3.04c-1.68,0-3.04,1.36-3.04,3.04
			c0,0.11,0.01,0.22,0.02,0.33"/>
	</g>
	<path class="st6" d="M5.25,30.36c0,1.24-1.01,2.25-2.25,2.25c-1.24,0-2.25-1.01-2.25-2.25c0-1.24,1.01-2.25,2.25-2.25
		C4.24,28.11,5.25,29.11,5.25,30.36z"/>
	<path class="st7" d="M38.38,39.27c0,0.78-0.63,1.41-1.41,1.41c-0.78,0-1.41-0.63-1.41-1.41s0.63-1.41,1.41-1.41
		C37.75,37.86,38.38,38.49,38.38,39.27z"/>
	<path class="st8" d="M42.14,12.18c0,0.55-0.44,0.99-0.99,0.99c-0.55,0-0.99-0.44-0.99-0.99c0-0.55,0.44-0.99,0.99-0.99
		C41.7,11.19,42.14,11.63,42.14,12.18z"/>
	<path class="st8" d="M9.28,35.47c0,0.55-0.44,0.99-0.99,0.99c-0.55,0-0.99-0.44-0.99-0.99c0-0.55,0.44-0.99,0.99-0.99
		C8.83,34.48,9.28,34.93,9.28,35.47z"/>
	<polyline class="st9" points="2.81,13.83 5.59,16.28 10.04,9.3 	"/>
	<polyline class="st10" points="41.89,34.95 43.62,36.46 46.37,32.14 	"/>
	<polyline class="st11" points="30.86,4.09 32.14,5.21 34.17,2.01 	"/>
	<path class="st8" d="M18.93,28.33c-0.02,0.17-0.03,0.34-0.03,0.52c0,2.67,2.17,4.84,4.84,4.84s4.84-2.16,4.84-4.84
		c0-0.18-0.01-0.35-0.03-0.52H18.93z"/>
</g>
<g class="st0">
	<g class="st1">
		<path class="st12" d="M39.65,25.16c0,8.72-7.07,15.79-15.79,15.79c-8.72,0-15.79-7.07-15.79-15.79S15.13,9.37,23.85,9.37
			C32.58,9.37,39.65,16.44,39.65,25.16z"/>
		<path class="st13" d="M37.91,25.16c0,7.76-6.29,14.06-14.06,14.06c-7.76,0-14.06-6.29-14.06-14.06c0-7.76,6.29-14.06,14.06-14.06
			C31.62,11.11,37.91,17.4,37.91,25.16z"/>
		<path class="st4" d="M11.44,25.16c0-5.66,2.96-10.58,7.33-13.11c-5.25,2.04-8.97,7.14-8.97,13.11c0,5.97,3.72,11.07,8.97,13.11
			C14.4,35.74,11.44,30.82,11.44,25.16z"/>
		<path class="st14" d="M21.29,24.46c0.01-0.11,0.02-0.22,0.02-0.33c0-1.68-1.36-3.04-3.04-3.04s-3.04,1.36-3.04,3.04
			c0,0.11,0.01,0.22,0.02,0.33"/>
		<path class="st14" d="M32.8,24.46c0.01-0.11,0.02-0.22,0.02-0.33c0-1.68-1.36-3.04-3.04-3.04c-1.68,0-3.04,1.36-3.04,3.04
			c0,0.11,0.01,0.22,0.02,0.33"/>
		<path class="st15" d="M18.3,28.39c-0.02,0.12-0.03,0.24-0.03,0.36c0,1.85,2.47,3.35,5.51,3.35c3.04,0,5.51-1.5,5.51-3.35
			c0-0.12-0.01-0.24-0.03-0.36"/>
	</g>
	<path class="st16" d="M8.54,35.98c0,1.24-1.01,2.25-2.25,2.25c-1.24,0-2.25-1.01-2.25-2.25c0-1.24,1.01-2.25,2.25-2.25
		C7.53,33.73,8.54,34.74,8.54,35.98z"/>
	<path class="st17" d="M42.24,12.18c0,0.55-0.44,0.99-0.99,0.99c-0.55,0-0.99-0.44-0.99-0.99c0-0.55,0.44-0.99,0.99-0.99
		C41.8,11.19,42.24,11.63,42.24,12.18z"/>
	<path class="st17" d="M3.32,28.15c0,0.55-0.44,0.99-0.99,0.99s-0.99-0.44-0.99-0.99c0-0.55,0.44-0.99,0.99-0.99
		S3.32,27.61,3.32,28.15z"/>
	<path class="st17" d="M19.78,1.47c-0.27,0.48-0.87,0.65-1.35,0.38c-0.48-0.27-0.65-0.87-0.38-1.35c0.27-0.48,0.87-0.65,1.35-0.38
		C19.88,0.39,20.05,1,19.78,1.47z"/>
	<polyline class="st18" points="37.7,38.21 40.48,40.66 44.93,33.67 	"/>
	<path class="st19" d="M16.08,5.62c-0.38,0.68-1.24,0.92-1.92,0.54c-0.68-0.38-0.92-1.24-0.54-1.92C14,3.56,14.86,3.32,15.54,3.7
		C16.22,4.08,16.46,4.94,16.08,5.62z"/>
</g>
<g class="st0">
	<g class="st1">
		<path class="st20" d="M39.68,25.13c0,8.72-7.07,15.79-15.79,15.79c-8.72,0-15.79-7.07-15.79-15.79S15.16,9.34,23.89,9.34
			C32.61,9.34,39.68,16.41,39.68,25.13z"/>
		<path class="st21" d="M37.94,25.13c0,7.76-6.29,14.06-14.06,14.06c-7.76,0-14.06-6.29-14.06-14.06c0-7.76,6.29-14.06,14.06-14.06
			C31.65,11.08,37.94,17.37,37.94,25.13z"/>
		<path class="st4" d="M11.47,25.13c0-5.66,2.96-10.58,7.33-13.11c-5.25,2.04-8.97,7.14-8.97,13.11c0,5.97,3.72,11.07,8.97,13.11
			C14.43,35.71,11.47,30.79,11.47,25.13z"/>
	</g>
	<circle class="st22" cx="34.49" cy="3.51" r="2.25"/>
	<path class="st23" d="M42.27,12.15c0,0.55-0.44,0.99-0.99,0.99c-0.55,0-0.99-0.44-0.99-0.99c0-0.55,0.44-0.99,0.99-0.99
		C41.83,11.16,42.27,11.6,42.27,12.15z"/>
	<path class="st23" d="M9.41,35.45c0,0.55-0.44,0.99-0.99,0.99s-0.99-0.44-0.99-0.99c0-0.55,0.44-0.99,0.99-0.99
		S9.41,34.9,9.41,35.45z"/>
	<path class="st24" d="M4.63,33.03c-0.38,0.68-1.24,0.92-1.92,0.54c-0.68-0.38-0.92-1.24-0.54-1.92c0.38-0.68,1.24-0.92,1.92-0.54
		C4.77,31.49,5.02,32.35,4.63,33.03z"/>
	<line class="st25" x1="18.31" y1="29.61" x2="29.2" y2="29.61"/>
	<circle class="st23" cx="18.05" cy="24.05" r="1.8"/>
	<circle class="st23" cx="29.57" cy="24.05" r="1.8"/>
	<g class="st1">
		<line class="st26" x1="41.22" y1="32.12" x2="45.13" y2="32.12"/>
		<line class="st26" x1="43.18" y1="34.07" x2="43.18" y2="30.16"/>
	</g>
	<g class="st1">
		<line class="st27" x1="3.25" y1="12.69" x2="9.31" y2="12.69"/>
		<line class="st27" x1="6.28" y1="15.72" x2="6.28" y2="9.65"/>
	</g>
</g>
<g class="st0">
	<path class="st28" d="M39.56,25.16c0,8.72-7.07,15.79-15.79,15.79c-8.72,0-15.79-7.07-15.79-15.79S15.05,9.37,23.77,9.37
		C32.49,9.37,39.56,16.44,39.56,25.16z"/>
	<path class="st29" d="M37.83,25.16c0,7.76-6.29,14.06-14.06,14.06c-7.76,0-14.06-6.29-14.06-14.06c0-7.76,6.29-14.06,14.06-14.06
		C31.53,11.11,37.83,17.4,37.83,25.16z"/>
	<path class="st30" d="M11.35,25.16c0-5.66,2.96-10.58,7.33-13.11c-5.25,2.04-8.97,7.14-8.97,13.11c0,5.97,3.72,11.07,8.97,13.11
		C14.32,35.74,11.35,30.82,11.35,25.16z"/>
	<path class="st31" d="M6.86,16.62c0,1.24-1.01,2.25-2.25,2.25c-1.24,0-2.25-1.01-2.25-2.25s1.01-2.25,2.25-2.25
		C5.85,14.36,6.86,15.37,6.86,16.62z"/>
	<path class="st28" d="M12.95,3.79c0,0.55-0.44,0.99-0.99,0.99c-0.55,0-0.99-0.44-0.99-0.99c0-0.55,0.44-0.99,0.99-0.99
		C12.51,2.8,12.95,3.25,12.95,3.79z"/>
	<circle class="st28" cx="41.84" cy="30.67" r="0.99"/>
	<path class="st28" d="M8.15,36.07c0,0.55-0.44,0.99-0.99,0.99c-0.55,0-0.99-0.44-0.99-0.99c0-0.55,0.44-0.99,0.99-0.99
		C7.71,35.08,8.15,35.53,8.15,36.07z"/>
	<path class="st32" d="M45.32,27.3c-0.38,0.68-1.24,0.92-1.92,0.54c-0.68-0.38-0.92-1.24-0.54-1.92c0.38-0.68,1.24-0.92,1.92-0.54
		C45.46,25.76,45.7,26.62,45.32,27.3z"/>
	<g class="st1">
		<line class="st33" x1="36.66" y1="5.17" x2="40.95" y2="9.46"/>
		<line class="st33" x1="36.66" y1="9.46" x2="40.95" y2="5.17"/>
	</g>
	<path class="st34" d="M17.53,31.04c0.95-1,3.36-1.7,6.18-1.7c2.73,0,5.08,0.67,6.09,1.61"/>
	<path class="st28" d="M30.61,22.7l-2.5,0.18c-0.28,0.32-0.45,0.74-0.45,1.19c0,0.99,0.81,1.8,1.8,1.8c0.99,0,1.8-0.81,1.8-1.8
		C31.26,23.52,31.01,23.03,30.61,22.7z"/>
	<path class="st28" d="M16.77,22.7c-0.39,0.33-0.63,0.82-0.63,1.37c0,0.99,0.81,1.8,1.8,1.8c0.99,0,1.8-0.81,1.8-1.8
		c0-0.45-0.17-0.87-0.45-1.18L16.77,22.7z"/>
</g>
<g>
	<path class="st35" d="M39.62,25.19c0,8.72-7.07,15.79-15.79,15.79c-8.72,0-15.79-7.07-15.79-15.79S15.1,9.39,23.82,9.39
		C32.55,9.39,39.62,16.46,39.62,25.19z"/>
	<path class="st36" d="M37.88,25.19c0,7.76-6.29,14.06-14.06,14.06c-7.76,0-14.06-6.29-14.06-14.06c0-7.76,6.29-14.06,14.06-14.06
		C31.59,11.13,37.88,17.42,37.88,25.19z"/>
	<path class="st35" d="M28.6,32.77c0.02-0.17,0.03-0.34,0.03-0.52c0-2.67-2.16-4.84-4.84-4.84c-2.67,0-4.84,2.16-4.84,4.84
		c0,0.18,0.01,0.35,0.03,0.52H28.6z"/>
	<path class="st4" d="M11.41,25.19c0-5.66,2.96-10.58,7.33-13.11c-5.25,2.04-8.97,7.14-8.97,13.11c0,5.97,3.72,11.07,8.97,13.11
		C14.37,35.76,11.41,30.84,11.41,25.19z"/>
	<path class="st37" d="M6.91,16.64c0,1.24-1.01,2.25-2.25,2.25s-2.25-1.01-2.25-2.25s1.01-2.25,2.25-2.25S6.91,15.4,6.91,16.64z"/>
	<circle class="st35" cx="37.94" cy="9.7" r="0.99"/>
	<path class="st35" d="M12.53,42.13c0,0.55-0.44,0.99-0.99,0.99s-0.99-0.44-0.99-0.99c0-0.55,0.44-0.99,0.99-0.99
		S12.53,41.58,12.53,42.13z"/>
	<path class="st38" d="M41.41,6.32C41.03,7,40.17,7.24,39.49,6.86c-0.68-0.38-0.92-1.24-0.54-1.92c0.38-0.68,1.24-0.92,1.92-0.54
		C41.55,4.79,41.79,5.65,41.41,6.32z"/>
	<g>
		<line class="st39" x1="9.06" y1="4.13" x2="12.93" y2="8"/>
		<line class="st39" x1="9.06" y1="8" x2="12.93" y2="4.13"/>
	</g>
	<g>
		<line class="st40" x1="41.12" y1="29.34" x2="45.46" y2="33.68"/>
		<line class="st40" x1="41.12" y1="33.68" x2="45.46" y2="29.34"/>
	</g>
	<g>
		<line class="st41" x1="5.76" y1="34.38" x2="8.91" y2="37.54"/>
		<line class="st41" x1="5.76" y1="37.54" x2="8.91" y2="34.38"/>
	</g>
	<polyline class="st42" points="29.57,23.13 26.65,24.61 29.95,24.74 	"/>
	<polyline class="st42" points="18.1,23.13 21.03,24.61 17.73,24.74 	"/>
</g>
<g class="st0">
	<g class="st1">
		<path class="st2" d="M23.85,9.37c-8.72,0-15.79,7.07-15.79,15.79c0,8.72,7.07,15.79,15.79,15.79c8.72,0,15.79-7.07,15.79-15.79
			C39.65,16.44,32.58,9.37,23.85,9.37z M23.85,39.22c-7.76,0-14.06-6.29-14.06-14.06c0-7.76,6.29-14.06,14.06-14.06
			c7.76,0,14.06,6.29,14.06,14.06C37.91,32.92,31.62,39.22,23.85,39.22z"/>
		<path class="st43" d="M11.44,25.16c0-5.66,2.96-10.58,7.33-13.11c-5.25,2.04-8.97,7.14-8.97,13.11c0,5.97,3.72,11.07,8.97,13.11
			C14.4,35.74,11.44,30.82,11.44,25.16z"/>
		<path class="st5" d="M21.17,24.46c0.01-0.11,0.02-0.22,0.02-0.33c0-1.68-1.36-3.04-3.04-3.04c-1.68,0-3.04,1.36-3.04,3.04
			c0,0.11,0.01,0.22,0.02,0.33"/>
		<path class="st5" d="M32.68,24.46c0.01-0.11,0.02-0.22,0.02-0.33c0-1.68-1.36-3.04-3.04-3.04s-3.04,1.36-3.04,3.04
			c0,0.11,0.01,0.22,0.02,0.33"/>
	</g>
	<path class="st6" d="M5.35,30.35c0,1.24-1.01,2.25-2.25,2.25c-1.24,0-2.25-1.01-2.25-2.25c0-1.24,1.01-2.25,2.25-2.25
		C4.35,28.1,5.35,29.11,5.35,30.35z"/>
	<path class="st7" d="M38.48,39.26c0,0.78-0.63,1.41-1.41,1.41c-0.78,0-1.41-0.63-1.41-1.41c0-0.78,0.63-1.41,1.41-1.41
		C37.85,37.85,38.48,38.49,38.48,39.26z"/>
	<path class="st8" d="M42.24,12.18c0,0.55-0.44,0.99-0.99,0.99c-0.55,0-0.99-0.44-0.99-0.99c0-0.55,0.44-0.99,0.99-0.99
		C41.8,11.19,42.24,11.63,42.24,12.18z"/>
	<path class="st8" d="M9.38,35.47c0,0.55-0.44,0.99-0.99,0.99c-0.55,0-0.99-0.44-0.99-0.99c0-0.55,0.44-0.99,0.99-0.99
		C8.93,34.48,9.38,34.93,9.38,35.47z"/>
	<polyline class="st9" points="2.91,13.83 5.69,16.28 10.14,9.3 	"/>
	<polyline class="st10" points="42,34.95 43.72,36.46 46.47,32.14 	"/>
	<polyline class="st11" points="30.96,4.09 32.24,5.21 34.28,2.01 	"/>
	<path class="st8" d="M19.03,28.33C19.01,28.5,19,28.67,19,28.85c0,2.67,2.16,4.84,4.84,4.84s4.84-2.16,4.84-4.84
		c0-0.17-0.01-0.35-0.03-0.52H19.03z"/>
</g>
<g class="st0">
	<g class="st1">
		<path class="st12" d="M23.85,9.39c-8.72,0-15.79,7.07-15.79,15.79c0,8.72,7.07,15.79,15.79,15.79c8.72,0,15.79-7.07,15.79-15.79
			C39.65,16.46,32.58,9.39,23.85,9.39z M23.85,39.24c-7.76,0-14.06-6.29-14.06-14.06c0-7.76,6.29-14.06,14.06-14.06
			c7.76,0,14.06,6.29,14.06,14.06C37.91,32.95,31.62,39.24,23.85,39.24z"/>
		<path class="st43" d="M11.44,25.19c0-5.66,2.96-10.58,7.33-13.11c-5.25,2.04-8.97,7.14-8.97,13.11c0,5.97,3.72,11.07,8.97,13.11
			C14.4,35.76,11.44,30.84,11.44,25.19z"/>
		<path class="st14" d="M21.29,24.48c0.01-0.11,0.02-0.22,0.02-0.33c0-1.68-1.36-3.04-3.04-3.04s-3.04,1.36-3.04,3.04
			c0,0.11,0.01,0.22,0.02,0.33"/>
		<path class="st14" d="M32.8,24.48c0.01-0.11,0.02-0.22,0.02-0.33c0-1.68-1.36-3.04-3.04-3.04c-1.68,0-3.04,1.36-3.04,3.04
			c0,0.11,0.01,0.22,0.02,0.33"/>
		<path class="st15" d="M18.3,28.41c-0.02,0.12-0.03,0.24-0.03,0.36c0,1.85,2.47,3.35,5.51,3.35c3.04,0,5.51-1.5,5.51-3.35
			c0-0.12-0.01-0.24-0.03-0.36"/>
	</g>
	<path class="st16" d="M8.54,36.01c0,1.24-1.01,2.25-2.25,2.25c-1.24,0-2.25-1.01-2.25-2.25c0-1.24,1.01-2.25,2.25-2.25
		C7.53,33.76,8.54,34.77,8.54,36.01z"/>
	<path class="st17" d="M42.24,12.2c0,0.55-0.44,0.99-0.99,0.99c-0.55,0-0.99-0.44-0.99-0.99c0-0.55,0.44-0.99,0.99-0.99
		C41.8,11.21,42.24,11.65,42.24,12.2z"/>
	<path class="st17" d="M3.32,28.18c0,0.55-0.44,0.99-0.99,0.99s-0.99-0.44-0.99-0.99c0-0.55,0.44-0.99,0.99-0.99
		S3.32,27.63,3.32,28.18z"/>
	<path class="st17" d="M19.78,1.5c-0.27,0.48-0.87,0.65-1.35,0.38c-0.48-0.27-0.65-0.87-0.38-1.35c0.27-0.48,0.87-0.65,1.35-0.38
		C19.88,0.42,20.05,1.02,19.78,1.5z"/>
	<polyline class="st18" points="37.7,38.23 40.48,40.69 44.93,33.7 	"/>
	<path class="st19" d="M16.08,5.65c-0.38,0.68-1.24,0.92-1.92,0.54c-0.68-0.38-0.92-1.24-0.54-1.92c0.38-0.68,1.24-0.92,1.92-0.54
		C16.22,4.11,16.46,4.97,16.08,5.65z"/>
</g>
<g class="st0">
	<g class="st1">
		<path class="st20" d="M23.88,9.34c-8.72,0-15.79,7.07-15.79,15.79c0,8.72,7.07,15.79,15.79,15.79c8.72,0,15.79-7.07,15.79-15.79
			C39.68,16.41,32.61,9.34,23.88,9.34z M23.88,39.19c-7.76,0-14.06-6.29-14.06-14.06c0-7.76,6.29-14.06,14.06-14.06
			c7.76,0,14.06,6.29,14.06,14.06C37.94,32.89,31.65,39.19,23.88,39.19z"/>
		<path class="st43" d="M11.47,25.13c0-5.66,2.96-10.58,7.33-13.11c-5.25,2.04-8.97,7.14-8.97,13.11c0,5.97,3.72,11.07,8.97,13.11
			C14.43,35.71,11.47,30.79,11.47,25.13z"/>
	</g>
	<circle class="st22" cx="34.48" cy="3.51" r="2.25"/>
	<path class="st23" d="M42.27,12.15c0,0.55-0.44,0.99-0.99,0.99c-0.55,0-0.99-0.44-0.99-0.99c0-0.55,0.44-0.99,0.99-0.99
		C41.83,11.16,42.27,11.6,42.27,12.15z"/>
	<path class="st23" d="M9.41,35.44c0,0.55-0.44,0.99-0.99,0.99s-0.99-0.44-0.99-0.99c0-0.55,0.44-0.99,0.99-0.99
		S9.41,34.9,9.41,35.44z"/>
	<path class="st24" d="M4.63,33.03c-0.38,0.68-1.24,0.92-1.92,0.54c-0.68-0.38-0.92-1.24-0.54-1.92c0.38-0.68,1.24-0.92,1.92-0.54
		C4.77,31.49,5.01,32.35,4.63,33.03z"/>
	<line class="st25" x1="18.31" y1="29.61" x2="29.2" y2="29.61"/>
	<circle class="st23" cx="18.05" cy="24.04" r="1.8"/>
	<circle class="st23" cx="29.57" cy="24.04" r="1.8"/>
	<g class="st1">
		<line class="st26" x1="41.22" y1="32.11" x2="45.13" y2="32.11"/>
		<line class="st26" x1="43.17" y1="34.07" x2="43.17" y2="30.16"/>
	</g>
	<g class="st1">
		<line class="st27" x1="3.25" y1="12.69" x2="9.31" y2="12.69"/>
		<line class="st27" x1="6.28" y1="15.72" x2="6.28" y2="9.65"/>
	</g>
</g>
<g class="st0">
	<path class="st28" d="M23.93,9.37c-8.72,0-15.79,7.07-15.79,15.79c0,8.72,7.07,15.79,15.79,15.79c8.72,0,15.79-7.07,15.79-15.79
		C39.72,16.44,32.65,9.37,23.93,9.37z M23.93,39.22c-7.76,0-14.06-6.29-14.06-14.06c0-7.76,6.29-14.06,14.06-14.06
		c7.76,0,14.06,6.29,14.06,14.06C37.99,32.93,31.69,39.22,23.93,39.22z"/>
	<path class="st44" d="M11.51,25.16c0-5.66,2.96-10.58,7.33-13.11c-5.25,2.04-8.97,7.14-8.97,13.11c0,5.97,3.72,11.07,8.97,13.11
		C14.47,35.74,11.51,30.82,11.51,25.16z"/>
	<path class="st31" d="M7.02,16.62c0,1.24-1.01,2.25-2.25,2.25c-1.24,0-2.25-1.01-2.25-2.25s1.01-2.25,2.25-2.25
		C6.01,14.37,7.02,15.37,7.02,16.62z"/>
	<path class="st28" d="M13.11,3.79c0,0.55-0.44,0.99-0.99,0.99c-0.55,0-0.99-0.44-0.99-0.99s0.44-0.99,0.99-0.99
		C12.67,2.8,13.11,3.25,13.11,3.79z"/>
	<circle class="st28" cx="42" cy="30.67" r="0.99"/>
	<path class="st28" d="M8.31,36.07c0,0.55-0.44,0.99-0.99,0.99c-0.55,0-0.99-0.44-0.99-0.99c0-0.55,0.44-0.99,0.99-0.99
		C7.87,35.08,8.31,35.53,8.31,36.07z"/>
	<path class="st32" d="M45.47,27.3c-0.38,0.68-1.24,0.92-1.92,0.54c-0.68-0.38-0.92-1.24-0.54-1.92c0.38-0.68,1.24-0.92,1.92-0.54
		C45.61,25.76,45.86,26.62,45.47,27.3z"/>
	<g class="st1">
		<line class="st33" x1="36.82" y1="5.17" x2="41.11" y2="9.46"/>
		<line class="st33" x1="36.82" y1="9.46" x2="41.11" y2="5.17"/>
	</g>
	<path class="st34" d="M17.69,31.04c0.95-1,3.36-1.71,6.18-1.71c2.73,0,5.08,0.66,6.09,1.61"/>
	<path class="st28" d="M30.77,22.7l-2.5,0.18c-0.28,0.32-0.45,0.74-0.45,1.19c0,0.99,0.81,1.8,1.8,1.8c0.99,0,1.8-0.81,1.8-1.8
		C31.41,23.52,31.16,23.03,30.77,22.7z"/>
	<path class="st28" d="M16.93,22.7c-0.39,0.33-0.63,0.82-0.63,1.37c0,0.99,0.81,1.8,1.8,1.8c0.99,0,1.8-0.81,1.8-1.8
		c0-0.45-0.17-0.87-0.45-1.18L16.93,22.7z"/>
</g>
<g class="st0">
	<path class="st45" d="M23.93,9.39c-8.72,0-15.79,7.07-15.79,15.79c0,8.72,7.07,15.79,15.79,15.79c8.72,0,15.79-7.07,15.79-15.79
		C39.72,16.46,32.65,9.39,23.93,9.39z M23.93,39.24c-7.76,0-14.06-6.29-14.06-14.06c0-7.76,6.29-14.06,14.06-14.06
		c7.76,0,14.06,6.29,14.06,14.06C37.98,32.95,31.69,39.24,23.93,39.24z"/>
	<path class="st45" d="M28.71,32.78c0.02-0.17,0.03-0.34,0.03-0.52c0-2.67-2.16-4.84-4.84-4.84c-2.67,0-4.84,2.16-4.84,4.84
		c0,0.17,0.01,0.35,0.03,0.52H28.71z"/>
	<path class="st44" d="M11.51,25.19c0-5.66,2.96-10.58,7.33-13.11c-5.25,2.04-8.97,7.14-8.97,13.11c0,5.97,3.72,11.07,8.97,13.11
		C14.47,35.76,11.51,30.84,11.51,25.19z"/>
	<circle class="st46" cx="4.77" cy="16.64" r="2.25"/>
	<circle class="st45" cx="38.04" cy="9.7" r="0.99"/>
	<path class="st45" d="M12.63,42.13c0,0.55-0.44,0.99-0.99,0.99s-0.99-0.44-0.99-0.99c0-0.55,0.44-0.99,0.99-0.99
		S12.63,41.58,12.63,42.13z"/>
	<path class="st47" d="M41.51,6.32C41.13,7,40.27,7.24,39.59,6.86c-0.68-0.38-0.92-1.24-0.54-1.92c0.38-0.68,1.24-0.92,1.92-0.54
		C41.65,4.79,41.89,5.65,41.51,6.32z"/>
	<g class="st1">
		<line class="st39" x1="9.17" y1="4.13" x2="13.03" y2="8"/>
		<line class="st39" x1="9.17" y1="8" x2="13.03" y2="4.13"/>
	</g>
	<g class="st1">
		<line class="st40" x1="41.22" y1="29.34" x2="45.56" y2="33.68"/>
		<line class="st40" x1="41.22" y1="33.68" x2="45.56" y2="29.34"/>
	</g>
	<g class="st1">
		<line class="st41" x1="5.86" y1="34.38" x2="9.02" y2="37.54"/>
		<line class="st41" x1="5.86" y1="37.54" x2="9.02" y2="34.38"/>
	</g>
	<polyline class="st48" points="29.68,23.13 26.75,24.61 30.05,24.74 	"/>
	<polyline class="st48" points="18.21,23.13 21.13,24.61 17.83,24.74 	"/>
</g>
</svg>
