<svg xmlns="http://www.w3.org/2000/svg" viewBox="0 0 726.61 721.01"><defs><style>.cls-1{fill:#4d4d4d;}</style></defs><title>Asset 20</title><g id="Layer_2" data-name="Layer 2"><g id="Layer_1-2" data-name="Layer 1"><path class="cls-1" d="M238.32,160a69,69,0,1,0-69-69A69,69,0,0,0,238.32,160Zm0-103.94a35,35,0,1,1-35,35A35,35,0,0,1,238.32,56Z"/><path class="cls-1" d="M464,175.16H200A70,70,0,0,0,130.76,235h0L106.3,402,3.47,654.26h0v0C-6.39,678.6,5.53,706.7,30,716.94a49.23,49.23,0,0,0,19,3.83,48.47,48.47,0,0,0,17.64-3.33,47.41,47.41,0,0,0,26.51-25.61s0-.08,0-.12l.09-.2,89-218.92,89.31,218.94a1.76,1.76,0,0,0,.09.2s0,.1.05.14.17.34.24.51.14.31.22.46a48.84,48.84,0,0,0,83.53,7.81c9.9-13.67,11.78-31.39,5.08-47.51a1.27,1.27,0,0,0-.06-.18L259.53,404.34l6.27-45.84a61.15,61.15,0,0,0,28.72,7.1,62.36,62.36,0,0,0,14.59-1.73,59.53,59.53,0,0,0,40.15-32.06l0-.05,33.17-69.5h83a43.88,43.88,0,0,0,36.74-66.66C494.35,182.79,480.07,175.16,464,175.16ZM328.21,680.71A14.47,14.47,0,0,1,315,686.6c-5.43-.6-10-3.73-12-8.19L199.16,423.9a17,17,0,0,0-16.89-10.53,17,17,0,0,0-16.88,10.55L61.89,678.44c-3.09,7.1-11.32,10.24-18.76,7.13S32,674.3,35,667.06h0L138.56,413l.11-.32q.2-.5.36-1c.07-.22.13-.44.19-.66s.14-.56.2-.84.12-.56.17-.84c0-.09,0-.18,0-.28L164.4,239.91h0A36.2,36.2,0,0,1,200,209.16H464c4.15,0,7.6,1.58,9.23,4.23a9.58,9.58,0,0,1,.23,9.6,10.17,10.17,0,0,1-8.42,5.27H311.79l-.34,0c-.35,0-.7,0-1.05.05l-.71.08c-.29,0-.59.08-.89.13s-.55.1-.82.17-.49.12-.73.19l-.89.26-.65.24c-.3.12-.59.23-.87.36l-.66.32c-.26.13-.52.26-.77.4l-.71.44c-.22.13-.43.27-.64.42s-.5.36-.75.56-.35.27-.52.42-.5.44-.74.67-.31.29-.45.45-.45.47-.66.72l-.46.54c-.18.23-.35.47-.52.71s-.33.47-.48.71-.26.42-.39.63-.33.6-.49.91c-.05.11-.11.2-.16.31l-11.69,24.61-13.18-10-.08-.06c-.33-.25-.67-.47-1-.7l-.39-.26c-.32-.19-.65-.36-1-.53l-.52-.28-.76-.31c-.27-.12-.54-.24-.82-.34s-.33-.1-.5-.15c-.38-.12-.75-.24-1.14-.34l-.41-.08c-.42-.09-.83-.18-1.26-.24l-.09,0-.45,0c-.37,0-.74-.08-1.11-.09h-.77c-.29,0-.58,0-.86,0a9,9,0,0,0-.91.08c-.24,0-.48,0-.71.08l-.94.17-.69.15-.86.25c-.25.08-.5.15-.74.24l-.73.29c-.28.11-.56.23-.83.36s-.39.2-.59.3-.59.31-.88.49l-.5.32c-.29.19-.59.38-.87.6s-.32.25-.48.37-.53.43-.78.66-.36.35-.54.52-.42.41-.61.62-.44.51-.65.78-.24.26-.35.4l-.06.1c-.24.31-.45.64-.67,1l-.28.43c-.19.31-.35.63-.52.95l-.29.55c-.11.24-.2.49-.3.73s-.25.56-.35.85-.1.32-.15.48c-.13.38-.25.77-.34,1.15,0,.14-.06.28-.09.41-.09.42-.17.84-.23,1.26a.44.44,0,0,0,0,.1L225.23,404.23c0,.06,0,.12,0,.17-.05.38-.07.75-.1,1.13,0,.19,0,.38,0,.57,0,.35,0,.7,0,1s0,.44,0,.66.06.58.1.87.06.55.11.83.1.45.15.68.15.66.24,1,.12.39.18.58c.12.35.23.69.36,1a1.15,1.15,0,0,1,.06.17l103,252.83.06.14a.42.42,0,0,1,0,.1C331.57,671.18,331.14,676.67,328.21,680.71Zm-9.6-363.6h0a25.4,25.4,0,0,1-17.46,13.7c-8,1.93-16.36.34-22.35-4.25h0l-7.78-6,3.19-23.31,2.56,1.94a15.63,15.63,0,0,0,1.73,1.14,21.07,21.07,0,0,0,30.34-8.7,17.51,17.51,0,0,0,.92-2.43l12.8-26.95h22.25Z"/><path class="cls-1" d="M709.61,687H639V497.5h29.91a52.09,52.09,0,0,0,51.87-52.19V87.9c0-22.86-11.71-45.75-32.12-62.81C669.56,9.14,645.26,0,622,0S574.37,9.14,555.3,25.09c-20.41,17.06-32.11,40-32.11,62.81V445.31a52.08,52.08,0,0,0,51.86,52.19H605V687H534.32a17,17,0,1,0,0,34H709.61a17,17,0,0,0,0-34ZM622,34c15.22,0,32,6.42,44.85,17.17,8.55,7.15,14.63,15.58,17.68,24.23h-125C567.44,53.33,594.92,34,622,34Zm-64.78,66.4H686.75V445.31a18.05,18.05,0,0,1-17.87,18.19H575.05a18,18,0,0,1-17.86-18.19Z"/></g></g></svg>