<svg xmlns="http://www.w3.org/2000/svg" viewBox="0 0 412.26 718.83"><defs><style>.cls-1{fill:#4d4d4d;}</style></defs><title>Asset 11</title><g id="Layer_2" data-name="Layer 2"><g id="Layer_1-2" data-name="Layer 1"><path class="cls-1" d="M206.26,134.92A67.46,67.46,0,1,0,138.8,67.46,67.53,67.53,0,0,0,206.26,134.92Zm0-100.92A33.46,33.46,0,1,1,172.8,67.46,33.49,33.49,0,0,1,206.26,34Z"/><path class="cls-1" d="M44.83,405.8a44.24,44.24,0,0,0,34.44-16.4l.35-.42.08-.09a.94.94,0,0,1,.09-.12c.13-.18.27-.35.39-.53l40.3-56.56a.43.43,0,0,0,0-.07,16.27,16.27,0,0,0,.89-1.38.6.6,0,0,1,.06-.11c.22-.4.42-.81.61-1.23.09-.19.17-.39.25-.58s.13-.29.19-.45V566.2c-.06,17.49,9.62,34,25.31,43.1a50.25,50.25,0,0,0,41.23,4.11V631.6c0,17.34,9.46,33.19,25.31,42.39a50.21,50.21,0,0,0,50.29,0c15.85-9.2,24.94-24.65,24.94-42.39V327.86l.21.5.24.57a17.5,17.5,0,0,0,1.58,2.73l.06.08,40.66,56.56c.11.15.22.3.34.44l.1.15.11.13.31.38a44.47,44.47,0,0,0,72-52c-.07-.12-.16-.22-.23-.33s-.14-.23-.22-.34l-35-49.27-35.09-91.16v0a75.53,75.53,0,0,0-70-48.21h-117a75.63,75.63,0,0,0-70.21,48.25v0l-34.7,91.09L7.43,336.68c-.09.12-.16.25-.25.38l-.25.35c-.15.23-.28.46-.42.69l0,.06a44.33,44.33,0,0,0,12.41,59.32A44.6,44.6,0,0,0,44.83,405.8ZM147.66,182.08h117A41.31,41.31,0,0,1,303,208.51h0l35.86,93.15c.05.13.11.26.17.39s.16.39.25.59c.17.37.35.73.55,1.08,0,.08.08.17.13.25a14,14,0,0,0,.88,1.38l0,.05,35.87,50.52a10.2,10.2,0,0,1-2.78,13.84A10.51,10.51,0,0,1,359.64,368l-39-54.29L288.5,229.28l-.09-.22c-.14-.33-.28-.66-.43-1l-.29-.6c-.14-.27-.3-.53-.45-.79s-.28-.47-.43-.7-.27-.4-.42-.6-.37-.52-.57-.77l-.4-.45c-.23-.27-.46-.53-.7-.78l-.44-.41c-.24-.23-.49-.46-.75-.68l-.56-.44-.71-.53c-.25-.17-.5-.32-.75-.48l-.61-.37L280,220c-.18-.08-.35-.18-.54-.26s-.65-.26-1-.38l-.55-.21c-.31-.1-.63-.18-.95-.26s-.45-.13-.68-.18-.55-.11-.83-.15l-.87-.14-.7-.06-1,0h-.25l-.41,0c-.34,0-.68,0-1,0l-.75.09c-.29,0-.58.08-.87.13s-.61.12-.91.19-.46.11-.68.18-.69.21-1,.33c-.13,0-.25.07-.37.12l-.22.09-1,.43-.61.29c-.27.14-.53.3-.79.45l-.7.43c-.2.13-.4.27-.59.42a9,9,0,0,0-.77.57l-.46.4c-.27.23-.53.46-.77.7s-.28.29-.41.43-.47.5-.69.76-.29.37-.43.55-.37.48-.54.73-.31.48-.46.72-.27.42-.39.64-.3.58-.44.87-.19.38-.28.58-.25.62-.37.93-.15.4-.22.61-.17.59-.25.89-.14.49-.19.74-.1.51-.15.77-.1.62-.14.93,0,.43,0,.64c0,.37-.05.73-.06,1.09,0,.08,0,.15,0,.23V631.6c0,5.61-2.62,9.86-8,13a16.1,16.1,0,0,1-16.15,0c-3.82-2.22-8.38-6.28-8.38-13v-237a17,17,0,0,0-34,0V565.87a16.09,16.09,0,0,1-24.16,14c-5.28-3.06-8.42-8.15-8.38-13.61V235.69c0-.1,0-.2,0-.3a17,17,0,0,0-32.88-6.11L91.52,313.74,52.85,368a10.52,10.52,0,0,1-14.25,1.76c-4.64-3.31-6-9.21-3.17-13.81l36.22-50.49.06-.09a16,16,0,0,0,.88-1.37h0c.25-.43.47-.88.68-1.34.09-.19.17-.39.25-.58s.14-.31.2-.47L109.2,208.5A41.44,41.44,0,0,1,147.66,182.08Z"/><path class="cls-1" d="M398.75,409.27a12.5,12.5,0,0,0-12.09,12.9A465.53,465.53,0,0,1,355,607.24a133.21,133.21,0,0,1-87.46,79.41,189.08,189.08,0,0,1-129.28-9.49,132.41,132.41,0,0,1-66.59-67.22A359,359,0,0,1,43.29,429.28a12.5,12.5,0,1,0-24.87-2.5A384.13,384.13,0,0,0,48.79,620a157.36,157.36,0,0,0,79.15,79.89,214.22,214.22,0,0,0,146.4,10.78,157.51,157.51,0,0,0,104-94.4,490.59,490.59,0,0,0,33.36-194.95A12.5,12.5,0,0,0,398.75,409.27Z"/></g></g></svg>