<svg xmlns="http://www.w3.org/2000/svg" viewBox="0 0 720.11 571.07"><defs><style>.cls-1{fill:#4d4d4d;}</style></defs><title>Asset 8</title><g id="Layer_2" data-name="Layer 2"><g id="Layer_1-2" data-name="Layer 1"><g id="lifting-2"><path class="cls-1" d="M479.91,462.09a186,186,0,0,1-161.72-8.74,12.5,12.5,0,1,0-12,21.92,213.12,213.12,0,0,0,90.55,25.83q5.61.31,11.24.31a213.42,213.42,0,0,0,81.56-16.24,12.5,12.5,0,1,0-9.6-23.08Z"/><path class="cls-1" d="M707.35,62c-8.67-21.61-22-38.78-38.65-49.64A72.26,72.26,0,0,0,634.1.6c-.37,0-.75,0-1.13,0H575.69c-.43,0-.85,0-1.27.05l-.3,0-.3,0c-21.51,1.83-40.61,13-55.27,32.29-14.8,19.49-24.52,44.68-28.13,72.85-.42,3.27-.75,6.57-1,9.88H476.66v-13h0a38.25,38.25,0,0,0-38-38.35H320.39a48.93,48.93,0,0,0-48.87,48.88v2.5H229.67c-1.55-21.17-6.49-41.32-14.53-59a133,133,0,0,0-14.41-24.5C191,19.26,179.55,10.08,166.6,5s-25.68-5-36.91-5H105.12c-3.53,0-6.93.15-10.22.28-3.07.13-6,.26-8.79.26h-.5C70.83,1,57.21,6.22,45.15,16.05c-8.88,7.23-16.89,16.87-23.82,28.66-1.89,3.21-3.68,6.56-5.31,9.94C7.73,71.82,2.75,91.31.81,114.22c-3.14,37.08,2.92,72,17.52,101.08,6.47,12.85,13.81,22.95,22.46,30.87,11.1,10.16,24.65,16.58,38.15,18.08a59.63,59.63,0,0,0,6.55.36l.51,0h31.17c2.39,0,4.8,0,7.22.09s5.21.08,7.92.08a116.44,116.44,0,0,0,24.91-2.22c19.45-4.24,36.37-16.78,48.94-36.27,11.69-18.13,17.34-38.29,20-52a214.88,214.88,0,0,0,3.27-24.57h41.39c-2.7,21.61-13.53,42.93-29.61,57.46l0,0C164,276.69,138.5,387.89,177.77,483.9c.06.15.14.3.21.45l.21.47c.17.36.36.72.56,1.06l.13.25q.41.66.84,1.29l.12.14c.26.36.53.7.82,1,.09.1.18.21.28.31.25.28.51.55.79.81a4.11,4.11,0,0,0,.3.29c.36.33.73.65,1.12.95l.25.17c.32.24.65.47,1,.68.14.1.29.18.44.27.33.2.66.38,1,.55l.34.18c.47.22.94.42,1.42.6l.09,0,74.16,27.05C317,552.25,380.75,569.72,446.33,571q3.89.07,7.77.08c62,0,123.17-14.42,177.23-41.87a17,17,0,1,0-15.4-30.31C509.34,553,379.69,549.73,277.57,490.31l-.49-.25c-.28-.15-.56-.3-.85-.44s-.59-.26-.89-.38l-.5-.2-68.27-24.91A213.23,213.23,0,0,1,264,232.41h0l0,0c25.59-23.13,41.49-58.84,41.49-93.19v-26a15.07,15.07,0,0,1,14.87-14.88H438.62a4.21,4.21,0,0,1,4,4.36v53.85a1.62,1.62,0,0,1-.8,1.38c-.15,0-.3,0-.46,0a30.06,30.06,0,0,0-25,18.67,2.28,2.28,0,0,1-1.36,1.21h0a30.12,30.12,0,0,0-21.55,13.37h0a2.31,2.31,0,0,1-1.57.64H362.57a17,17,0,0,0-32.59-.21,91.9,91.9,0,0,0-3.21,15q-.06.38-.09.78a93.08,93.08,0,0,0,1.63,31.86s0,0,0,0c7.47,34,4.13,72.85-9.89,115.62A146,146,0,0,0,306,365a17,17,0,1,0,22.78,25.24c40.54-36.58,102.8-37.87,144.82-3A17,17,0,1,0,495.26,361a143.73,143.73,0,0,0-16.43-11.79,225,225,0,0,1,138.61,22.62,17,17,0,1,0,15.67-30.18,259,259,0,0,0-210.46-12.63,144.08,144.08,0,0,0-63.28,5.34c8.3-36.77,9-71.1,2.16-102.42l0-.08a.28.28,0,0,0,0-.09,57.53,57.53,0,0,1-1.05-6h31.44a36.25,36.25,0,0,0,29-14.54,36.36,36.36,0,0,0,26.06-19.69,35.34,35.34,0,0,0,29.74-35.07V149.7h13A203.81,203.81,0,0,0,495.2,182c9.74,37.88,28.15,64.35,53.22,76.53a60.13,60.13,0,0,0,23.15,6.07,16.68,16.68,0,0,0,4.15.53H633c20.61,0,40-10.26,54.74-28.89,7.79-9.89,14.31-21.7,19.91-36.1C724.36,157.08,724.26,104.14,707.35,62ZM48.71,200c-11.79-23.44-16.64-52.12-14-82.94,1.58-18.7,5.49-34.29,11.94-47.65,1.24-2.56,2.59-5.08,4-7.5,4.87-8.29,10.25-14.86,16-19.53,6.09-5,12.49-7.53,19.54-7.83,10.9.42,19.48,6.9,24.78,12.3,6.79,6.93,12.47,16.52,17.37,29.29a161.55,161.55,0,0,1,.85,111.65c-5.17,14.14-11.4,24.54-19,31.8-8.19,7.78-18.46,11.82-27.44,10.83-6.38-.7-13.11-4-18.93-9.36C58.2,216,53.28,209.12,48.71,200Zm144.1-32.28c-2.5,12.8-13,55.07-42.83,61.58-1.4.31-2.84.53-4.31.73a132.5,132.5,0,0,0,15.42-30.57,196,196,0,0,0-1-135.47,132.66,132.66,0,0,0-15.39-29.58,36,36,0,0,1,9.45,2.16c7,2.76,13.51,8.14,19.38,16a99.61,99.61,0,0,1,10.7,18.24c7.83,17.17,12,37.61,12,59.12v.28a16.55,16.55,0,0,0-.2,2.46,17.52,17.52,0,0,0,.14,2.06c-.06,2.69-.14,5.37-.3,8A184.62,184.62,0,0,1,192.81,167.75Zm335.32,5.78a170.94,170.94,0,0,1-4.35-23.83H590a17,17,0,1,0,0-34H523.47c2.26-24,9.83-45.93,22.16-62.18,8.57-11.28,18.7-17.63,30.15-18.89C601,37.21,614.59,64.26,621.6,86.7c12.5,40,8.64,83.82-10.32,117.11-7.32,12.86-26.78,34.46-48,24.14C543.3,218.24,533.13,193,528.13,173.53Zm147.8,14.28C671.57,199,666.69,208,661,215.19s-14.75,15.45-27,15.9a105,105,0,0,0,6.84-10.45c23.54-41.34,28.48-95.19,13.23-144.07-5.14-16.46-11.9-30.46-20-41.81a38.71,38.71,0,0,1,16.08,6c13.58,8.88,21.47,23.3,25.69,33.83C689.41,108.59,689.47,153,675.93,187.81Z"/></g></g></g></svg>