<svg xmlns="http://www.w3.org/2000/svg" viewBox="0 0 662.41 720.17"><defs><style>.cls-1{fill:#4d4d4d;}</style></defs><title>Asset 12</title><g id="Layer_2" data-name="Layer 2"><g id="Layer_1-2" data-name="Layer 1"><path class="cls-1" d="M272.08,652.11l-66.81,32.35c-13.09,5.12-28.59-1.45-35.43-15.1a29.39,29.39,0,0,1,8.69-36.76l2.06-.88a17,17,0,1,0-13.39-31.25l-.55.23a17.06,17.06,0,0,0-4.84,2.14,63.32,63.32,0,0,0-22.36,81.75c11.18,22.3,33.68,35.58,56.72,35.58a58.94,58.94,0,0,0,21.48-4l.28-.11.56-.22h0c.32-.13.64-.28,1-.43l67.43-32.65a17,17,0,1,0-14.82-30.6Z"/><path class="cls-1" d="M331.44,176.06a88,88,0,1,0-88-88A88.13,88.13,0,0,0,331.44,176.06Zm0-142.06a54,54,0,1,1-54,54A54.09,54.09,0,0,1,331.44,34Z"/><path class="cls-1" d="M634.08,348.65l-.12-.06c-.2-.11-.39-.23-.6-.33s-.28-.13-.42-.2l-.44-.22L567.21,318.5l-110-82.41h0A209,209,0,0,0,331,194.2h0a209,209,0,0,0-126.16,41.88h0l-110,82.41L29.53,347.84c-.21.09-.39.2-.59.3s-.38.17-.56.27l-.29.16-.21.12a54.1,54.1,0,0,0-25,29.8,53.56,53.56,0,0,0,1.81,39.45,54.84,54.84,0,0,0,49.8,32.36,52.4,52.4,0,0,0,17.23-2.91l.15-.05.46-.15.62-.26.54-.21,73.88-32.93h0l.33-.14.21-.11c.37-.17.74-.36,1.1-.56l.48-.28c.28-.16.55-.34.82-.52l.55-.38.15-.1,58.85-44.36v86l-31.19-16.07-.06,0-.06,0a66.2,66.2,0,0,0-66.9,3.74,67.54,67.54,0,0,0,6.73,116.57l.07,0,0,0L442.4,715.29l.05,0,.07,0c.46.22.91.42,1.37.59l.13.06.17,0,.36.13A63,63,0,0,0,466.07,720a63.46,63.46,0,0,0,34.41-116.79l-.13-.09,0,0c-.21-.13-.43-.24-.65-.37s-.5-.31-.77-.45l-.08,0h0L243.9,470.88V333.24c0-.14,0-.26,0-.4,0-.32,0-.64,0-1s0-.48-.07-.73-.08-.61-.14-.91-.09-.51-.15-.76-.14-.56-.22-.84-.15-.53-.23-.78-.19-.52-.29-.78-.21-.53-.33-.79-.22-.47-.34-.71-.28-.54-.43-.8-.25-.43-.39-.64-.35-.53-.54-.8c-.08-.1-.14-.22-.22-.33l-.22-.26c-.19-.24-.39-.47-.59-.7s-.36-.41-.54-.6-.38-.38-.58-.56-.43-.41-.66-.6a6.26,6.26,0,0,0-.57-.45l-.74-.56c-.2-.14-.41-.27-.62-.4s-.5-.32-.76-.46-.49-.26-.73-.38-.47-.24-.71-.34-.57-.24-.86-.35l-.65-.23c-.31-.11-.62-.19-.94-.27l-.66-.17c-.3-.07-.61-.13-.91-.18l-.76-.11c-.27,0-.55-.06-.84-.08s-.58,0-.88,0l-.36,0-.41,0c-.31,0-.62,0-.93.05l-.77.07c-.29,0-.58.08-.87.14s-.54.09-.8.15l-.81.21-.81.25c-.25.08-.5.18-.74.27l-.83.34-.68.33c-.28.14-.55.29-.82.45s-.42.24-.63.38-.54.35-.8.54l-.33.22-84.54,63.72L60.49,415.31c-9.61,3.25-20.41-1.65-24.74-11.29a19.85,19.85,0,0,1,8.52-25.53l66.2-29.75.22-.11c.36-.17.71-.35,1.06-.54l.48-.28c.28-.16.56-.35.83-.53s.36-.24.53-.37l.1-.07L225.22,263.3h0c62.28-46.59,149.27-46.59,211.57,0h0l111.53,83.54.1.07c.17.13.35.25.53.37s.55.37.83.53.31.19.47.28c.35.19.71.37,1.06.54l.23.11,66.37,29.83A19.51,19.51,0,0,1,626.7,404c-4.28,9.55-15.5,14.55-25.15,11.29l-71.22-31.92-80.74-60.77-.33-.22c-.26-.19-.53-.37-.8-.54l-.63-.38c-.27-.16-.54-.3-.81-.44l-.7-.34-.8-.33-.77-.28-.78-.24c-.28-.08-.56-.15-.85-.21s-.5-.11-.75-.15-.61-.11-.92-.14l-.73-.08-1,0-.39,0-.34,0-.93,0-.8.07-.79.13-.88.16-.7.18-.89.26-.69.25-.83.34c-.25.1-.49.23-.73.35l-.72.37c-.26.14-.51.3-.77.47s-.41.25-.61.39l-.75.56-.56.45c-.22.19-.44.4-.66.6s-.39.37-.57.56-.37.4-.55.6-.4.46-.59.71l-.22.26c-.08.11-.14.22-.22.33s-.37.52-.54.8-.26.42-.38.63-.3.53-.44.81-.23.46-.34.7-.22.53-.33.8-.19.51-.28.77-.16.52-.24.78-.15.56-.21.84-.11.51-.16.76-.1.61-.14.92-.05.48-.07.73,0,.64-.05,1c0,.13,0,.25,0,.38V468.82l-49.75,25.73a17,17,0,1,0,15.62,30.2l55.84-28.88a17,17,0,0,0,5.9-3.05l48.81-25.25a33.26,33.26,0,1,1,29.73,59.5l-47.45,23.3a17,17,0,0,0,15,30.52l47.5-23.33h0l0,0a67.26,67.26,0,1,0-60.17-120.3l-.07,0-.08,0-26.93,13.93v-81l55.05,41.42.13.09c.17.13.36.25.54.37s.54.37.82.54l.48.27c.36.2.72.38,1.08.55l.22.11,73.79,33.08c.18.08.36.14.54.21s.43.19.65.27l.42.14.17.06a53.31,53.31,0,0,0,17.46,2.95,55,55,0,0,0,50-32.4A53.78,53.78,0,0,0,634.08,348.65ZM492.61,669.36a29.58,29.58,0,0,1-36.09,15l-323-157.28a33.55,33.55,0,0,1-3.14-57.71,32.53,32.53,0,0,1,32.87-1.79L482.45,632A29.28,29.28,0,0,1,492.61,669.36Z"/></g></g></svg>