<svg xmlns="http://www.w3.org/2000/svg" viewBox="0 0 594.3 721.63"><defs><style>.cls-1{fill:#4d4d4d;}</style></defs><title>Asset 18</title><g id="Layer_2" data-name="Layer 2"><g id="Layer_1-2" data-name="Layer 1"><path class="cls-1" d="M297.15,141.33a70.67,70.67,0,1,0-70.67-70.66A70.75,70.75,0,0,0,297.15,141.33Zm0-107.33a36.67,36.67,0,1,1-36.67,36.67A36.71,36.71,0,0,1,297.15,34Z"/><path class="cls-1" d="M577.3,146.93H17a17,17,0,0,0,0,34H84.82l17.61,80.58h0a68.89,68.89,0,0,0,67.07,53.57,67.34,67.34,0,0,0,40.18-13.31V405.35a17.65,17.65,0,0,1-11.15,16.16h0L98.35,459.78h0c-26.07,10-43.59,35.61-43.59,63.79V671.65c0,27.09,24,50,52.31,50,28.68,0,52-22.42,52-50V548.32l126.88-48.69h0a17.67,17.67,0,0,1,12.43,0l127.2,48.71V671.65a48.33,48.33,0,0,0,16.24,36,53.26,53.26,0,0,0,72.08-.13,48.5,48.5,0,0,0,16-35.87V523.57h0A68.68,68.68,0,0,0,486,459.78h0l-90.52-34.53a17.65,17.65,0,0,1-11.16-16.16V301.53a68.85,68.85,0,0,0,64,9.51,67.65,67.65,0,0,0,43.6-49.53h0l17.61-80.58H577.3a17,17,0,0,0,0-34ZM412.69,202.88a50,50,0,0,0-27.19-8H208.64a51.19,51.19,0,0,0-27.34,8l-4.77-22H417.46Zm46,51.37h0A33.84,33.84,0,0,1,436.82,279,34.55,34.55,0,0,1,404,273.79h0v0L383.42,257.6a.1.1,0,0,0-.05,0,20.14,20.14,0,0,0-21.32-2.21,20.67,20.67,0,0,0-11.75,18.4V409.08a51.61,51.61,0,0,0,33,47.92h0l90.52,34.53a34.48,34.48,0,0,1,22,32V671.65c0,8.51-8.41,16-18,16-9.75,0-18.31-7.47-18.31-16v-135c0-.07,0-.14,0-.21,0-.37,0-.73-.05-1.09s0-.43-.06-.64-.09-.62-.14-.92-.09-.53-.14-.78-.12-.48-.19-.72-.16-.62-.25-.91l-.21-.58c-.12-.32-.24-.65-.38-1s-.18-.35-.26-.53-.3-.62-.46-.92-.25-.4-.37-.61-.31-.5-.48-.75-.35-.47-.53-.71-.28-.38-.44-.57-.45-.5-.68-.75-.27-.3-.42-.44-.5-.46-.76-.69l-.47-.41c-.24-.19-.49-.38-.75-.56s-.4-.3-.61-.43-.45-.28-.67-.41-.54-.32-.82-.47l-.58-.28-1-.44-.19-.08L310.54,467.87h0a52.06,52.06,0,0,0-36.72,0h0L136,520.76l-.18.08c-.35.14-.68.29-1,.45s-.39.18-.57.28-.55.3-.82.46l-.67.41-.61.43c-.25.18-.51.37-.76.57s-.3.26-.45.39-.53.46-.78.71l-.4.42c-.23.25-.47.51-.69.77s-.29.37-.43.55-.37.48-.54.73-.32.49-.47.74-.26.41-.38.62-.31.6-.45.91-.19.36-.27.54-.25.64-.37,1-.15.39-.21.58-.18.6-.26.91-.13.48-.19.72-.09.52-.14.78-.1.61-.14.92,0,.43-.05.64,0,.73-.06,1.1c0,.07,0,.13,0,.2v135c0,8.66-8.24,16-18,16-9.58,0-18.31-7.62-18.31-16V523.57a33.9,33.9,0,0,1,21.73-32h0l100.17-38.27h0a51.61,51.61,0,0,0,33-47.92V266.28c0-.17,0-.33,0-.5,0-.37,0-.74-.06-1.11s-.06-.46-.09-.69-.08-.64-.15-1-.11-.5-.17-.76-.14-.57-.22-.85-.18-.52-.27-.78-.18-.53-.29-.78-.23-.54-.36-.8-.22-.47-.34-.71-.32-.55-.48-.83-.24-.4-.37-.6-.43-.6-.65-.89c-.1-.14-.19-.28-.3-.41s0,0,0-.06c-.24-.3-.5-.57-.76-.85s-.25-.29-.38-.42-.36-.33-.54-.5a16.84,16.84,0,0,0-3-2.19l-.45-.27L234,251l-.74-.35-.54-.2c-.34-.13-.68-.26-1-.37l-.14,0a16.57,16.57,0,0,0-2.22-.49c-.29,0-.58-.1-.87-.13s-.35,0-.52,0c-.39,0-.79-.06-1.18-.06h-.08l-.48,0c-.38,0-.75,0-1.13.05l-.68.1c-.32,0-.65.08-1,.14s-.5.12-.74.18-.58.13-.87.22l-.77.26-.8.29c-.26.11-.52.24-.78.36s-.48.22-.72.35-.55.31-.82.48l-.61.37c-.31.2-.6.42-.89.65-.14.1-.28.19-.41.3l-25.7,20.74A33.77,33.77,0,0,1,157.79,279a34.52,34.52,0,0,1-22.14-24.77h0l-16-73.32h22.11l12,55.36c0,.13.07.24.1.37s.13.54.21.81l.24.75.26.71c.12.31.26.61.4.91s.15.34.23.5a17.23,17.23,0,0,0,1.73,2.75l0,.06.13.14c.32.41.67.8,1,1.18l.33.33a13.37,13.37,0,0,0,1.19,1.07l.32.26c.38.29.76.56,1.16.82l.57.34q.48.28,1,.54c.17.09.34.19.52.27.51.23,1,.45,1.55.63l.2.07c.49.16,1,.3,1.49.42l.4.08a11.53,11.53,0,0,0,1.43.24l.31.05a17.14,17.14,0,0,0,1.76.1h.13a15.11,15.11,0,0,0,1.51-.08l.43,0c.45-.06.9-.13,1.34-.22l.21,0,.15,0c.47-.11.94-.24,1.4-.38l.17,0c.51-.17,1-.36,1.51-.58l.35-.17c.34-.16.68-.33,1-.51l.63-.37.67-.43c.23-.15.45-.31.67-.47l.3-.22L198,232.7l0,0,0,0a17.25,17.25,0,0,1,10.61-3.8H385.5a16.8,16.8,0,0,1,10.46,3.8l0,0,0,0,17.11,13.38.32.22.65.47.69.44.61.36c.34.19.7.36,1,.53.11,0,.21.1.32.15.5.22,1,.41,1.52.58l.14,0c.47.15.95.28,1.43.39l.13,0,.21,0c.45.09.9.16,1.35.22l.42,0c.51.05,1,.08,1.51.08h.14a17.14,17.14,0,0,0,1.76-.1l.31-.05a11.53,11.53,0,0,0,1.43-.24l.4-.08c.5-.12,1-.26,1.48-.42l.21-.07c.53-.18,1-.4,1.55-.63.18-.08.35-.18.53-.27s.66-.34,1-.53l.57-.36c.39-.25.77-.52,1.14-.8l.36-.28q.6-.5,1.17-1.05l.34-.35c.35-.37.69-.76,1-1.16,0-.05.09-.09.13-.15l0-.06a16.6,16.6,0,0,0,1.74-2.75c.08-.16.15-.33.23-.5s.28-.6.4-.91l.26-.72.24-.74c.07-.27.15-.54.21-.82,0-.12.07-.24.1-.36l12-55.36h22.42Z"/></g></g></svg>