<svg xmlns="http://www.w3.org/2000/svg" viewBox="0 0 717.43 718.63"><defs><style>.cls-1{fill:#4d4d4d;}</style></defs><title>Asset 10</title><g id="Layer_2" data-name="Layer 2"><g id="Layer_1-2" data-name="Layer 1"><path class="cls-1" d="M292.75,143.48A71.74,71.74,0,1,0,221,71.74,71.82,71.82,0,0,0,292.75,143.48Zm0-109.48A37.74,37.74,0,1,1,255,71.74,37.78,37.78,0,0,1,292.75,34Z"/><path class="cls-1" d="M565.56,630.73h0l-106.92-139h0A50.05,50.05,0,0,0,451,483.7h0l-64.61-53.85h0a3.34,3.34,0,0,1-1.06-2.58V279.51l47.25,28.7h0a51.18,51.18,0,0,0,42.55,5h0l96.39-31.53h0A44.37,44.37,0,0,0,544,197.28h0l-80.3,26.43L362.88,163.47h0a42.16,42.16,0,0,0-21.28-6H257.24a51.09,51.09,0,0,0-26.52,7.61h0L53.29,273h0a44.26,44.26,0,1,0,45.88,75.7h0L213.83,279V408.81a24.46,24.46,0,0,1-4,13.56h0L157.34,500c-.44.52-.87,1.06-1.27,1.64a3.38,3.38,0,0,1-3.54,1.4,17.87,17.87,0,0,0-2.7-.37L66.66,483.76h0A54.57,54.57,0,1,0,42.73,590.24h0l104.1,23.59h0a86.09,86.09,0,0,0,19,2.14,84.64,84.64,0,0,0,70.35-37.68h0l56.67-84.13,81.67,68h0a19,19,0,0,1,2.77,2.68h0L479.12,697.34h0a54,54,0,0,0,36.11,20.83,54.66,54.66,0,0,0,50.33-87.44ZM208,559.27h0a50.84,50.84,0,0,1-53.68,21.39h0L50.25,557.08h0a20.57,20.57,0,1,1,8.9-40.16L145,536.4a17.45,17.45,0,0,0,3.78.42h.1a37.75,37.75,0,0,0,4.5.28,37,37,0,0,0,29.22-14.28,17.35,17.35,0,0,0,1.78-2.19l50.53-74.71,31.68,26.36ZM534.75,680.34a20.36,20.36,0,0,1-28.67-3.72h0L404.3,544.08h0a50.24,50.24,0,0,0-8-8.08h0L247.72,412.32c.07-1.17.11-2.34.11-3.51V270.1a29.2,29.2,0,0,0-15-25.34,28.83,28.83,0,0,0-29,.55h0L81.5,319.67h0a10.09,10.09,0,0,1-7.75,1.16,10.45,10.45,0,0,1-6.45-4.74,10.27,10.27,0,0,1,3.66-14h0L248.38,194.12a17.18,17.18,0,0,1,8.86-2.66h84.35a8.32,8.32,0,0,1,3.85,1.19h0l102,61h0a30.46,30.46,0,0,0,24,3.22l.6-.17.72-.21h0l81.77-26.92h0a10,10,0,0,1,12.83,6.4,10.63,10.63,0,0,1-6.5,13.34h0L464.5,280.86h0a17.28,17.28,0,0,1-14.33-1.71h0l-54.86-33.33,0,0a28.93,28.93,0,0,0-44,24.8V427.26a37.17,37.17,0,0,0,13.28,28.68l0,0,64.61,53.85h0a16.43,16.43,0,0,1,2.53,2.68h0l106.9,139h0A20.64,20.64,0,0,1,534.75,680.34Z"/><path class="cls-1" d="M637.1,420a80.33,80.33,0,1,0,80.33,80.32A80.41,80.41,0,0,0,637.1,420Zm0,126.65a46.33,46.33,0,1,1,46.33-46.33A46.38,46.38,0,0,1,637.1,546.66Z"/></g></g></svg>