<svg xmlns="http://www.w3.org/2000/svg" viewBox="0 0 578.88 716.97"><defs><style>.cls-1{fill:#4d4d4d;}</style></defs><title>Asset 1</title><g id="Layer_2" data-name="Layer 2"><g id="Layer_1-2" data-name="Layer 1"><path class="cls-1" d="M289.23,142a71,71,0,1,0-71-71A71.1,71.1,0,0,0,289.23,142Zm0-108a37,37,0,1,1-37,37A37.05,37.05,0,0,1,289.23,34Z"/><path class="cls-1" d="M572,177.82c-8.42-13.88-24.18-22.13-42.2-22.13H48.66c-17.78,0-33.39,8.25-41.82,22.13a46.76,46.76,0,0,0,0,48.7,47.92,47.92,0,0,0,41.41,23H201.43v141.8a50.77,50.77,0,0,1-.87,10.46h0L143.32,656.12c0,.1,0,.2,0,.3s-.06.21-.08.31c-5,26.84,12.52,52.7,39.91,58.87A54.37,54.37,0,0,0,195,716.94a51,51,0,0,0,49-36.3l.06-.19.09-.28c0-.13.06-.27.1-.41s.13-.43.18-.66L289.2,481.76l44.34,197.31a.09.09,0,0,0,0,0,.06.06,0,0,0,0,0c5.2,22.59,26.32,37.81,49.95,37.81a55.76,55.76,0,0,0,12.28-1.37c27.78-6.26,45.09-32.29,39.39-59.26l0-.11s0-.07,0-.11L377.9,401.78h0a50.77,50.77,0,0,1-.87-10.46V249.51H529.77c17.47,0,33.65-8.79,42.27-23A46.76,46.76,0,0,0,572,177.82ZM388.31,682.43c-8.59,1.94-19.58-2.06-21.62-10.9L315.07,441.81h0a26.39,26.39,0,0,0-51.65-.07.14.14,0,0,1,0,.06h0l-51.89,229c-2.79,8.85-11.53,13.73-20.93,11.61s-15.5-10.74-14-19.34l57.12-253.84h0a82.34,82.34,0,0,0,1.7-17.93V248h0a32.52,32.52,0,0,0-32.49-32.49H48.35a14.26,14.26,0,0,1-12.45-6.64,12.86,12.86,0,0,1,0-13.4c3.24-5.33,10.47-5.78,12.8-5.78h481c2.3,0,10,.36,13.29,5.78a12.86,12.86,0,0,1,0,13.4c-2.49,4.1-7.54,6.64-13.2,6.64H375c-17.64,0-32,14.57-32,32.49V391.31a82.44,82.44,0,0,0,1.71,17.93h0l57.19,254.13C403.92,672.93,396.58,680.57,388.31,682.43Z"/></g></g></svg>