<svg xmlns="http://www.w3.org/2000/svg" viewBox="0 0 366.1 718.41"><defs><style>.cls-1{fill:#4d4d4d;}</style></defs><title>Asset 5</title><g id="Layer_2" data-name="Layer 2"><g id="Layer_1-2" data-name="Layer 1"><path class="cls-1" d="M136.51,68.25a68.26,68.26,0,1,0-68.26,68.26A68.33,68.33,0,0,0,136.51,68.25ZM34,68.25a34.26,34.26,0,1,1,34.25,34.26A34.3,34.3,0,0,1,34,68.25Z"/><path class="cls-1" d="M364.37,482h0l-26.5-101.72a26.18,26.18,0,0,1,.94-15.38A184.39,184.39,0,0,0,179.69,112.26a39.12,39.12,0,0,0-22.62,6l0,0L109.1,147.48h0a50.82,50.82,0,0,0-19.28,21.14h0v0L47.67,256.36l0,0A66.15,66.15,0,0,0,80.08,345l0,0,0,0h0L185.35,393l.4.16.46.21a45.08,45.08,0,0,0,16.42,3.05,47.46,47.46,0,0,0,7.71-.64,90.93,90.93,0,0,0,26.83,45.94h0a25.54,25.54,0,0,1,5.82,9.06l0,.06,0,0,13.2,30.68h0a25.54,25.54,0,0,1,1.66,14.54h0l-28.84,159v0a54,54,0,0,0,71.4,60.09A52.89,52.89,0,0,0,335,674.46v0L365,507.6h0A59.6,59.6,0,0,0,364.37,482ZM144.05,272.34l14.89-31.24a96.85,96.85,0,0,1,59.35,64.61ZM289,683.25a20,20,0,0,1-26.43-22h0l28.84-159h0a59.56,59.56,0,0,0-3.79-33.79l0-.06s0,0,0-.05l-13.25-30.79,0-.06c-3.64-8.57-8.23-15.33-14-20.67h0a57.45,57.45,0,0,1-12.27-68v0a60.3,60.3,0,0,0,6.1-38.46h0a130.22,130.22,0,0,0-92.38-104h0a25.86,25.86,0,0,0-30.14,13.48l0,0s0,0,0,0L111.6,261.4h0v0l0,.05,0,0a29.78,29.78,0,0,0,11.78,38.67l.23.13.17.1c.39.22.79.41,1.19.59l.09.05,84.5,38a23.74,23.74,0,0,1,4.32,2.87,90.6,90.6,0,0,0-5,19,12.78,12.78,0,0,1-10,.82L94.21,314.12h0a32.18,32.18,0,0,1-15.86-43h0v0l42.08-87.67a16.57,16.57,0,0,1,6.44-6.93h0l47.9-29.21h0a6.68,6.68,0,0,1,2.71-1.06A150.4,150.4,0,0,1,307.07,352.66l-.09.27c0,.09-.08.18-.11.27A60.49,60.49,0,0,0,305,388.81h0v0l26.5,101.71h0a25.74,25.74,0,0,1,.12,11h0l-30,166.82h0A19.24,19.24,0,0,1,289,683.25Z"/></g></g></svg>