<svg xmlns="http://www.w3.org/2000/svg" viewBox="0 0 680.15 716.23"><defs><style>.cls-1{fill:#4d4d4d;}</style></defs><title>Asset 15</title><g id="Layer_2" data-name="Layer 2"><g id="Layer_1-2" data-name="Layer 1"><path class="cls-1" d="M35,497.41l.26,0,.12,0,88.79,20.18h0a63.07,63.07,0,0,0,14,1.56,65.13,65.13,0,0,0,53.77-28.53v0l49.76-73.86,60.67,50.38-15.05,95.24s0,.09,0,.13a.5.5,0,0,1,0,.12c-1.51,10.59.25,20.6,5.09,28.95a45,45,0,0,0,22.91,19.87,49.8,49.8,0,0,0,15.63,3.32l1.48,0a44.83,44.83,0,0,0,28.49-10.35,47.79,47.79,0,0,0,4.9-4.93l.59-.66A43.36,43.36,0,0,0,376.8,576.5s0,0,0-.06v0h0L394.4,466.6h0a65,65,0,0,0-22.63-59.85h0l-49.71-41.38A.86.86,0,0,1,322,365V233.76l12.91,5h0l0,0a56.11,56.11,0,0,0,66-20.12,17.31,17.31,0,0,0,1.22-1.6l46.41-69.48a.41.41,0,0,0,0-.09.91.91,0,0,0,.11-.16,40.85,40.85,0,0,0-42.83-62,39.36,39.36,0,0,0-25,17,.18.18,0,0,1-.05.07l-35.54,52.93-34.84-13.22h-.05a54.85,54.85,0,0,0-19.82-3.69H213a45.22,45.22,0,0,0-23.53,6.51h0l-85.33,51.9h0a56.08,56.08,0,0,0-27.18,48.24v79a41.47,41.47,0,0,0,2.42,13.64,39.64,39.64,0,0,0,27.17,24.82,38.29,38.29,0,0,0,9.75,1.25,40.14,40.14,0,0,0,29.14-12.35,40.79,40.79,0,0,0,10.79-27.36V261a.7.7,0,0,1,.18-.13l0,0,.06,0,17.61-9.05v82.15a58.52,58.52,0,0,0,.61,8.29,1.09,1.09,0,0,1,0,.18A25.83,25.83,0,0,1,171,359.64l-44,65.49h-.12L55.6,409c-.16,0-.33-.06-.49-.09l-.51-.11-.55-.08-.26,0c-14.41-2.12-29.35,2.27-39.15,11.59C3.47,430.87-1.9,446.08.61,460c2.61,14.43,11.22,26.76,23.05,33A52.86,52.86,0,0,0,35,497.41Zm85.45-169.07a6.47,6.47,0,0,1-5.3,1.32,5.84,5.84,0,0,1-3.71-3.16,7.81,7.81,0,0,1-.52-2.42v-79a22.36,22.36,0,0,1,10.86-19.2h0L207.13,174h0a11.08,11.08,0,0,1,5.87-1.57h77.55a21.51,21.51,0,0,1,7.79,1.48h0l41.8,15.86c.27.1.55.18.82.27a24.51,24.51,0,0,0,7.88,1.33,24.86,24.86,0,0,0,20.46-10.91l.21-.28,0,0h0L409,121.38l.09-.16.12-.17a5.53,5.53,0,0,1,3.61-2.42,7,7,0,0,1,5.29,1,6.73,6.73,0,0,1,2,9.25l-45.6,68.25c-.24.32-.49.63-.71,1A22.52,22.52,0,0,1,347.05,207h0l-25.29-9.77-.05,0,0,0a25.5,25.5,0,0,0-23.22,2.72A24.92,24.92,0,0,0,288,220.59V365a34.56,34.56,0,0,0,12.17,26.32h0L350,432.86h0a30.85,30.85,0,0,1,10.81,28.36L343.24,571.06v.05a9.85,9.85,0,0,1-2.08,5l-.75.83c-.53.6-1.27,1.42-1.57,1.68a11.4,11.4,0,0,1-6.71,2.23,16.71,16.71,0,0,1-5-1.21,11.65,11.65,0,0,1-5.33-5,11.4,11.4,0,0,1-.85-7l15.83-100.13v0a24.54,24.54,0,0,0-8.51-22.9h0L216.08,351.37h0a22.62,22.62,0,0,1-8-17.48V237a25.38,25.38,0,0,0-12.16-21.38,24.5,24.5,0,0,0-24.05-1l0,0,0,0-30.85,15.86-.13.07a33.77,33.77,0,0,0-18.61,30v63.42A6.74,6.74,0,0,1,120.46,328.34ZM38.05,444.92c2.18-2.07,6.72-3.18,10.69-2.63l70.55,16h0a33.56,33.56,0,0,0,7.5.84,34.13,34.13,0,0,0,27.58-13.95c.09-.11.16-.23.25-.34s.26-.36.39-.54v0h0l42.9-63.79L215.4,395l-51.65,76.68,0,0a30.72,30.72,0,0,1-32,12.82h0L43.24,464.41a19,19,0,0,1-3.76-1.54c-2.47-1.3-4.7-5-5.41-8.92C33.68,451.79,35.09,447.73,38.05,444.92Z"/><path class="cls-1" d="M259.06,124.81a62.41,62.41,0,1,0-62.41-62.4A62.47,62.47,0,0,0,259.06,124.81Zm0-90.81a28.41,28.41,0,1,1-28.41,28.41A28.43,28.43,0,0,1,259.06,34Z"/><path class="cls-1" d="M638.48,624.76l-.25,0-.27,0-.64,0c-.24,0-.47,0-.71,0h-23.4l-8.66-63.41a16.76,16.76,0,0,0-.65-4.81L568.08,294l54.38-6.6a17,17,0,1,0-4.09-33.75l-69.57,8.44a18.64,18.64,0,0,0-2.22.14,17.5,17.5,0,0,0-1.78.35l-63.65,7.72a17,17,0,0,0,2,33.88,18.26,18.26,0,0,0,2.07-.13l49.07-5.95L539,332.23H479.6a52.71,52.71,0,0,0-39.29,87.63h0L571.2,568.25l7.69,56.4H60.31c-24,0-43.54,20.44-43.54,45.57,0,24.94,19.94,46,43.54,46h576.3a41.9,41.9,0,0,0,31.73-14.69,48.08,48.08,0,0,0,11.81-31.32A46,46,0,0,0,638.48,624.76ZM465.81,397.37h0a18.77,18.77,0,0,1-3.08-20.09,18.39,18.39,0,0,1,16.88-11h64L562.9,507.44ZM60.31,682.23c-4.9,0-9.54-5.84-9.54-12s4.46-11.57,9.54-11.57H635.68a11.79,11.79,0,0,1,10.47,11.57c0,5.67-4.08,12-9.54,12Z"/></g></g></svg>