<svg xmlns="http://www.w3.org/2000/svg" viewBox="0 0 672.81 603.07"><defs><style>.cls-1{fill:#4d4d4d;}</style></defs><title>Asset 13</title><g id="Layer_2" data-name="Layer 2"><g id="Layer_1-2" data-name="Layer 1"><path class="cls-1" d="M672.78,75.94c0-.2,0-.4,0-.61s0-.27,0-.4,0-.14,0-.21c-1.25-15.31-8-28.56-19-37.36A48.82,48.82,0,0,0,623.4,26.67h-.11A48.45,48.45,0,0,0,605,30.34,82.45,82.45,0,1,0,573.57,170.2v.55a7.43,7.43,0,0,1-5.88,7.43,2.29,2.29,0,0,0-.28.07l-.29.05c-33.36,7.94-59.86,30-72.71,60.56a.76.76,0,0,1,0,.11.61.61,0,0,1-.05.12L415.16,435.31c-.14.3-.29.59-.41.89a12.42,12.42,0,0,1-18.55,5.61,18.33,18.33,0,0,0-2.27-1.29l-119.58-82a17.35,17.35,0,0,0-2.22-1.84,76.34,76.34,0,0,0-91.36,4.05c-.49.41-1,.85-1.39,1.3L22.13,492.1l-.22.19c-.07.07-.16.12-.23.19-17.88,15.86-25.35,38.76-20,61.24,5,21,21.56,38.37,42.12,44.21a62.61,62.61,0,0,0,17,2.37,61,61,0,0,0,38.95-14l0,0,.07-.06h0L227.29,481.43h0a7.65,7.65,0,0,1,9.13-.62l143.9,98.78h0a133.28,133.28,0,0,0,75.56,23.48,135.5,135.5,0,0,0,39.29-5.84A133.69,133.69,0,0,0,581,518.85h0l62.19-154.58c2.38-5.93,4.88-11.8,7.52-18,6.57-15.44,13.36-31.39,18.14-48a110.59,110.59,0,0,0,3.92-30.9V76.55C672.81,76.34,672.79,76.15,672.78,75.94ZM526,133.58A48.4,48.4,0,1,1,579.6,53.37a49.1,49.1,0,0,0-6,23.18v56.81A48.17,48.17,0,0,1,526,133.58Zm110.26,155.3C632,303.47,625.63,318.46,619.46,333c-2.59,6.09-5.26,12.38-7.78,18.63L549.49,506.17h0a100.64,100.64,0,0,1-149.9,45.38h0l-143.9-98.78h0a41.78,41.78,0,0,0-50,2.42h0L78.25,560.06l0,0,0,0a27.42,27.42,0,0,1-25.07,5.1c-8.65-2.46-16.18-10.44-18.33-19.41-2.44-10.18,1-20.3,9.35-27.79L202.33,387.2c.41-.34.79-.7,1.17-1.07A42.2,42.2,0,0,1,251,383.54a16.61,16.61,0,0,0,1.89,1.53L377,470.13a16.48,16.48,0,0,0,3,1.65A46.17,46.17,0,0,0,403.16,478a46.66,46.66,0,0,0,13.49-2,46.19,46.19,0,0,0,28.88-25.37,16.37,16.37,0,0,0,.75-1.58L525.77,252c8.61-20.42,26.54-35.23,49.23-40.62l0,0a41.6,41.6,0,0,0,32.52-40.61V76.55c0-4.16,2.31-8.87,5.87-12a15.61,15.61,0,0,1,9.93-3.89h0a14.92,14.92,0,0,1,9.11,3.27c3.68,2.94,5.8,7.46,6.3,13.43v190C638.81,275.92,638,282.75,636.22,288.88Z"/><path class="cls-1" d="M233.77,130.46a12.5,12.5,0,0,0,17-5C289.17,55,368.35,15.48,447.76,27a12.5,12.5,0,1,0,3.6-24.74A217.81,217.81,0,0,0,228.79,113.5,12.5,12.5,0,0,0,233.77,130.46Z"/><path class="cls-1" d="M337.07,117.09a166.06,166.06,0,0,0-62.84,78.22,12.49,12.49,0,0,0,7.11,16.18,12.31,12.31,0,0,0,4.54.86,12.48,12.48,0,0,0,11.64-8A142.37,142.37,0,0,1,432.86,114h.28a12.5,12.5,0,0,0,.27-25A166.14,166.14,0,0,0,337.07,117.09Z"/></g></g></svg>