<svg xmlns="http://www.w3.org/2000/svg" viewBox="0 0 631.97 717.33"><defs><style>.cls-1{fill:#4d4d4d;}</style></defs><title>Asset 16</title><g id="Layer_2" data-name="Layer 2"><g id="Layer_1-2" data-name="Layer 1"><path class="cls-1" d="M391.35,497.2v0L340,412.52h0a7,7,0,0,1-.73-5.58h0L383.71,267h0a.74.74,0,0,1,.25-.38,1,1,0,0,1,.19.15l109.91,97.6c.15.13.3.23.44.35s.21.2.33.29l.47.36h0c8.4,6.49,17,9.69,26.41,9.69a50.33,50.33,0,0,0,15.07-2.48,45.31,45.31,0,0,0,31-35c3-16.05-1.33-29.34-13.24-40.63l-.22-.19c-.07-.06-.13-.13-.2-.2L405.81,165.05a.88.88,0,0,0-.15-.12c-.27-.24-.55-.46-.84-.68s-.36-.28-.54-.4-.49-.33-.74-.48-.5-.32-.76-.46-.39-.21-.59-.31-.65-.32-1-.46l-.18-.08a36.4,36.4,0,0,0-6.21-2L290,133.36h0a40.87,40.87,0,0,0-10.39-1.42h-.5L186.71,134h-.08a52,52,0,0,0-25,7.13h0l-119.53,70-.18.11a44.46,44.46,0,0,0-22.64,39,45.18,45.18,0,0,0,68.16,39.12l.36-.19,106.91-62.47h0a17.93,17.93,0,0,1,8.62-2.49h0L212,224,151.1,400.55,110.55,520.07v0a12.3,12.3,0,0,1-2.13,3.94h0L10.21,643.58h0A45.17,45.17,0,0,0,80,700.93l0,0,97.3-118.33h0a42.66,42.66,0,0,0,3.83-5.33l0,0c.22-.38.43-.76.63-1.15l60.5-121.26,58.23,76.24.26.3.35.46a12.91,12.91,0,0,1,2.71,10.32h0L284.64,665.26a17,17,0,0,0-.11,4.21,45.07,45.07,0,0,0,89.24,11.32q.19-.78.33-1.59l23.42-150.76v0A46.48,46.48,0,0,0,391.35,497.2Zm-63.54,186a11.09,11.09,0,0,1-9.24-12.66,17.46,17.46,0,0,0,.19-3.37l18.69-119.78h0a46.73,46.73,0,0,0-9.93-37L252.78,412.5c-.07-.09-.16-.18-.24-.27a10.41,10.41,0,0,0-.68-.81c-.15-.17-.31-.34-.47-.5s-.45-.44-.68-.66l-.62-.53c-.21-.17-.41-.34-.63-.5s-.52-.38-.78-.55l-.58-.37c-.3-.18-.61-.35-.92-.52l-.32-.18-.25-.11c-.31-.15-.63-.28-.94-.41l-.67-.26c-.27-.1-.55-.18-.82-.27l-.83-.23-.69-.15c-.32-.06-.64-.13-1-.17l-.62-.07c-.34,0-.67-.07-1-.09h-1.61c-.26,0-.52,0-.78.07s-.54,0-.81.08l-.91.17c-.23,0-.45.08-.67.14s-.64.17-1,.26l-.62.2c-.3.1-.59.22-.89.34l-.66.28c-.26.12-.51.25-.76.39l-.77.41-.6.39c-.29.18-.57.37-.85.58l-.23.15-.28.24-.8.68-.5.48c-.23.22-.45.45-.66.68s-.36.4-.53.61l-.51.64c-.19.25-.37.51-.54.77l-.37.59c-.19.3-.36.6-.52.91-.06.11-.13.21-.18.32L151.8,560.05c-.14.2-.35.47-.73.93h0L53.76,679.31h0a11.17,11.17,0,0,1-17.27-14.16h0l98.2-119.52h0A46.13,46.13,0,0,0,142.74,531v0h0v0h0l40.5-119.4L252,212.14c0-.1.05-.2.09-.31.1-.33.2-.66.29-1s.12-.47.17-.7.11-.58.15-.88.09-.59.12-.89,0-.47.06-.71,0-.7,0-1.05c0-.11,0-.21,0-.31l0-.32c0-.35,0-.7-.07-1.05s-.05-.46-.08-.68-.09-.6-.15-.9-.11-.54-.17-.8-.13-.49-.2-.73-.19-.6-.29-.89a6.62,6.62,0,0,0-.24-.62c-.12-.31-.24-.61-.38-.9l-.29-.59c-.15-.28-.3-.56-.46-.84l-.38-.61c-.16-.24-.32-.48-.49-.71l-.5-.66-.48-.58c-.2-.23-.41-.45-.63-.67l-.48-.48c-.23-.22-.47-.43-.71-.64l-.54-.43c-.24-.19-.48-.37-.74-.54l-.64-.43c-.23-.15-.47-.29-.71-.42s-.54-.3-.82-.43l-.62-.3c-.33-.14-.66-.28-1-.4l-.36-.15-.2-.05c-.35-.12-.7-.22-1.05-.31l-.63-.16-.9-.16-.83-.13-.71-.05c-.34,0-.68,0-1,0h-.51l-33,.6h-.07a52,52,0,0,0-25,7.13h0L70.63,259.79l-.16.1-.16.09a10.84,10.84,0,0,1-11.24.24,11.39,11.39,0,0,1-5.81-10,10.75,10.75,0,0,1,5.67-9.6.41.41,0,0,0,.11-.07l.22-.11,119.51-70h0A18,18,0,0,1,187.4,168h0l92.43-2.1a15,15,0,0,1,1.8.38h0L386,192.93,531.35,321.79c3.45,3.3,3.94,4.87,3.06,9.57a11.37,11.37,0,0,1-7.78,8.77c-4.87,1.53-6.72,1.27-10.42-1.58L406.73,241.33h0A33.63,33.63,0,0,0,375,233.79a34.4,34.4,0,0,0-23.67,22.91h0L306.86,396.66h0a40.82,40.82,0,0,0,4.08,33.47h0l51.35,84.67h0a12.22,12.22,0,0,1,1.64,8.38h0l-23.3,150c-.05.25-.12.5-.16.76A11.1,11.1,0,0,1,327.81,683.19Z"/><path class="cls-1" d="M382.77,134.61A67.31,67.31,0,1,0,315.46,67.3,67.38,67.38,0,0,0,382.77,134.61Zm0-100.61a33.31,33.31,0,1,1-33.31,33.3A33.34,33.34,0,0,1,382.77,34Z"/><path class="cls-1" d="M549.65,385.4A82.32,82.32,0,1,0,632,467.72,82.42,82.42,0,0,0,549.65,385.4Zm0,130.64A48.32,48.32,0,1,1,598,467.72,48.37,48.37,0,0,1,549.65,516Z"/><path class="cls-1" d="M519.47,565.29a12.5,12.5,0,0,0-12.5,12.5V700.32a12.5,12.5,0,0,0,25,0V577.79A12.5,12.5,0,0,0,519.47,565.29Z"/><path class="cls-1" d="M589.14,562a12.5,12.5,0,0,0-12.5,12.5v81.68a12.5,12.5,0,0,0,25,0V574.49A12.49,12.49,0,0,0,589.14,562Z"/></g></g></svg>