<svg xmlns="http://www.w3.org/2000/svg" viewBox="0 0 720.5 680.96"><defs><style>.cls-1{fill:#4d4d4d;}</style></defs><title>Asset 8</title><g id="Layer_2" data-name="Layer 2"><g id="Layer_1-2" data-name="Layer 1"><path class="cls-1" d="M413.6,342h0l-55.17-36.45,73.39-56,34,50.22h0l.09.13a46.17,46.17,0,0,0,38.17,20.22H637a47.94,47.94,0,0,0,0-95.87H530.4l-60-88.63h0a75.5,75.5,0,0,0-108.23-17.8h0L228.4,219.89h0a81.87,81.87,0,0,0,4.76,133.87h0l89.31,58.5L302.89,556.15v0a54.42,54.42,0,1,0,107.8,15v0l24.81-181.2h0A49,49,0,0,0,413.6,342ZM364.45,582.92a20.31,20.31,0,0,1-27.89-22v-.07a.31.31,0,0,0,0-.08l21-154.51c0-.12,0-.24,0-.35q.06-.51.09-1c0-.25,0-.49,0-.74s0-.57,0-.86,0-.58-.06-.87-.05-.48-.08-.71-.09-.64-.15-1-.09-.42-.14-.64-.16-.64-.25-.95-.14-.43-.21-.65-.2-.58-.31-.86-.21-.49-.32-.73-.22-.49-.34-.72-.29-.53-.44-.79l-.36-.6c-.18-.28-.36-.54-.55-.8l-.4-.54c-.2-.25-.4-.49-.62-.73l-.48-.54-.62-.6c-.21-.2-.43-.39-.65-.58s-.37-.31-.57-.47-.55-.41-.83-.6l-.28-.21-98.28-64.37h0a47.88,47.88,0,0,1-2.8-78.41h0l133.77-102h0A41,41,0,0,1,414.55,137a41.74,41.74,0,0,1,27.71,17.73h0L505.39,248c.08.13.17.24.26.36a23.39,23.39,0,0,0,19.16,9.94H637a13.63,13.63,0,0,1,11.87,7,14,14,0,0,1,0,13.94,13.64,13.64,0,0,1-11.88,7H504.08a12,12,0,0,1-10.1-5.4h0l-40.19-59.35h0A23.77,23.77,0,0,0,420,215.79h0l-94.21,71.92,0,0a22.92,22.92,0,0,0-9.16,19.19,23.68,23.68,0,0,0,10.7,18.81l.06,0,67.51,44.6h.05a15.28,15.28,0,0,1,6.93,14.89h0L377,566.5a.17.17,0,0,0,0,.07s0,0,0,.07A20.51,20.51,0,0,1,364.45,582.92Z"/><path class="cls-1" d="M546,148.14a74.07,74.07,0,1,0-74.07-74.07A74.16,74.16,0,0,0,546,148.14ZM546,34a40.07,40.07,0,1,1-40.07,40.07A40.11,40.11,0,0,1,546,34Z"/><path class="cls-1" d="M140.57,399.81C63.06,399.81,0,462.87,0,540.38S63.06,681,140.57,681,281.15,617.9,281.15,540.38,218.09,399.81,140.57,399.81Zm0,247.15A106.58,106.58,0,1,1,247.15,540.38,106.7,106.7,0,0,1,140.57,647Z"/><path class="cls-1" d="M579.92,399.81c-77.51,0-140.58,63.06-140.58,140.57S502.41,681,579.92,681,720.5,617.9,720.5,540.38,657.43,399.81,579.92,399.81Zm0,247.15A106.58,106.58,0,1,1,686.5,540.38,106.7,106.7,0,0,1,579.92,647Z"/><path class="cls-1" d="M140.57,462.72a77.75,77.75,0,0,0-77.66,77.66,12.5,12.5,0,0,0,25,0,52.72,52.72,0,0,1,52.66-52.66,12.5,12.5,0,0,0,0-25Z"/><path class="cls-1" d="M645.08,527.88a12.5,12.5,0,0,0-12.5,12.5,52.72,52.72,0,0,1-52.66,52.67,12.5,12.5,0,1,0,0,25,77.75,77.75,0,0,0,77.66-77.67A12.5,12.5,0,0,0,645.08,527.88Z"/></g></g></svg>