<svg xmlns="http://www.w3.org/2000/svg" viewBox="0 0 631.16 720.32"><defs><style>.cls-1{fill:#4d4d4d;}</style></defs><title>Asset 17</title><g id="Layer_2" data-name="Layer 2"><g id="Layer_1-2" data-name="Layer 1"><path class="cls-1" d="M347.32,233.65l-.05-.08c-.16-.22-.34-.41-.5-.62s-.32-.43-.5-.64a13.58,13.58,0,0,1-3.47-10.67,13.92,13.92,0,0,1,6.07-9.53L389.17,184a.18.18,0,0,1,.07-.05c17.59-12,23.75-34.29,15-54.37-9.9-22.58-33.15-33-54.08-24.12l-.09,0-.11,0L238,154.45h0a77.74,77.74,0,0,0-46.86,75.72h0a218.16,218.16,0,0,0,15.78,71.55v0a78.09,78.09,0,0,0,18.34,26.68l.06.07c15.2,15,24.72,33.47,31.85,61.8a1.21,1.21,0,0,1,.05.18s0,.1,0,.15c23.21,85.07-3.12,174.73-68.7,234l0,0c-15.93,14.41-18.08,38.4-5,55.83l0,0v0h0l1.89,2.53h0v0a40.88,40.88,0,0,0,28.93,16.5,37,37,0,0,0,3.79.19,42.22,42.22,0,0,0,28.13-11l.29-.3c.11-.1.22-.18.33-.29a444.7,444.7,0,0,0,68.17-87.71L310.33,676V676c-1.32,22.49,16,42.12,38.62,43.85H349l4.16.32h.08c1,.08,2.07.12,3.1.12a41.37,41.37,0,0,0,41.25-37h0l22.71-207c0-.09,0-.18,0-.28s0-.19,0-.29c6.17-81.07-20.44-169.31-73-242.11A.18.18,0,0,0,347.32,233.65Zm39.17,239.4L363.82,679.64h0a7.36,7.36,0,0,1-8.08,6.64l-4.11-.31h-.07a7.63,7.63,0,0,1-7.29-8L354.74,511.9a2.08,2.08,0,0,0,0-.25c0-.36,0-.72,0-1.08s0-.43,0-.65-.05-.65-.09-1,0-.5-.09-.74-.1-.54-.15-.81-.12-.58-.19-.86-.13-.45-.2-.67-.19-.61-.3-.91-.16-.41-.25-.61-.25-.6-.39-.89-.21-.42-.32-.62-.29-.54-.44-.8-.29-.45-.44-.67-.3-.45-.46-.66-.37-.48-.57-.71-.29-.36-.45-.54-.44-.47-.67-.69-.31-.32-.47-.47l-.73-.61c-.18-.15-.36-.31-.55-.45l-.71-.5c-.23-.15-.46-.31-.7-.45s-.43-.24-.65-.36l-.87-.46-.58-.25c-.34-.14-.68-.28-1-.4a2.18,2.18,0,0,0-.23-.09c-.12-.05-.25-.07-.38-.11-.32-.1-.65-.2-1-.28s-.52-.12-.79-.17l-.81-.15c-.33,0-.67-.08-1-.11l-.41-.05h-.25c-.38,0-.75,0-1.13,0h-.56c-.37,0-.74.06-1.11.1l-.58.07-1,.2-.63.14c-.31.08-.62.18-.92.27l-.67.22-.86.35c-.22.09-.44.18-.65.29s-.57.29-.85.44l-.58.32c-.29.18-.57.37-.85.56l-.49.33c-.29.22-.57.45-.85.68l-.41.35c-.27.24-.53.5-.79.76l-.37.39c-.24.25-.46.52-.68.79l-.39.49c-.19.25-.36.5-.53.76l-.43.65c-.13.23-.26.46-.38.69s-.3.55-.44.84-.18.4-.26.61-.28.65-.4,1l-.09.23a411.34,411.34,0,0,1-98.35,158.31,7.82,7.82,0,0,1-5.68,2c-.72-.07-2.9-.28-5-3.09l-1.9-2.54h0v0c-2.51-3.34-2.25-7.64.61-10.23h0a267.1,267.1,0,0,0,77.25-123A266.19,266.19,0,0,0,290.09,382c-5.81-23.11-15.72-52.81-40.93-77.68l-.09-.08-.09-.09a44.39,44.39,0,0,1-10.63-15.23h0a184.15,184.15,0,0,1-13.3-60.43h0a44,44,0,0,1,26.53-42.83h0l111.78-48.87c5.65-2.34,9.66,6.37,9.7,6.46,1.66,3.8,1.86,9.41-3.07,12.69l-.14.11-.15.09-40.3,28.15h0A47.12,47.12,0,0,0,320,253.84C367.76,320.13,392,400,386.49,473.05Z"/><path class="cls-1" d="M161.58,165.19A14,14,0,0,0,142.37,170l-126,209.78c-.06.09-.14.18-.21.27a14.12,14.12,0,0,0-1,1.8L2.91,402.21l0,0,0,0a20.19,20.19,0,0,0,2.22,23.79h0L31,455.16h0A26.08,26.08,0,0,0,50.56,464a25.73,25.73,0,0,0,4.61-.41A26.62,26.62,0,0,0,74.93,448.3l.15-.34c.06-.16.14-.31.2-.47a.56.56,0,0,0,0-.12c0-.06.05-.11.07-.17l2.24-6.08s0,0,0-.06a38.34,38.34,0,0,0-14.15-45.4h0L46.53,384,166.38,184.4A14,14,0,0,0,161.58,165.19Z"/><path class="cls-1" d="M615,246.67A336.06,336.06,0,0,0,398.63,29.92a12.5,12.5,0,0,0-7.7,23.79A311,311,0,0,1,545.57,534.13,12.5,12.5,0,1,0,565.7,549,336,336,0,0,0,615,246.67Z"/><path class="cls-1" d="M501.9,223.09a12.5,12.5,0,0,0-6.6,16.4,266.56,266.56,0,0,1-22.41,251.42,12.5,12.5,0,0,0,20.9,13.72A291.5,291.5,0,0,0,518.3,229.68,12.5,12.5,0,0,0,501.9,223.09Z"/><path class="cls-1" d="M229.22,132.84A66.42,66.42,0,1,0,162.8,66.42,66.5,66.5,0,0,0,229.22,132.84Zm0-98.84A32.42,32.42,0,1,1,196.8,66.42,32.45,32.45,0,0,1,229.22,34Z"/></g></g></svg>