<svg xmlns="http://www.w3.org/2000/svg" viewBox="0 0 593.16 720.27"><defs><style>.cls-1{fill:#4d4d4d;}</style></defs><title>Asset 6lifting</title><g id="Layer_2" data-name="Layer 2"><g id="Layer_1-2" data-name="Layer 1"><g id="lifting"><path class="cls-1" d="M296,141.59a70.8,70.8,0,1,0-70.8-70.8A70.88,70.88,0,0,0,296,141.59ZM296,34a36.8,36.8,0,1,1-36.8,36.79A36.84,36.84,0,0,1,296,34Z"/><path class="cls-1" d="M576.16,360.18h-2.7V315.66A32.49,32.49,0,0,0,541,283.2H501a32.5,32.5,0,0,0-32.46,32.46v44.52H443.45V248.68s0-.05,0-.08,0,0,0-.08a92.32,92.32,0,0,0-92.32-92.3H240.67c-50.82,0-92.17,41.48-92.17,92.46v111.5H124.31V315.66h0A32.34,32.34,0,0,0,92.16,283.2h-40A32.49,32.49,0,0,0,19.7,315.66v44.52H17a17,17,0,0,0,0,34h2.7v44.53a32.34,32.34,0,0,0,32.46,32.15h40a32.18,32.18,0,0,0,32.15-32.15V394.18h84.2v274a51.44,51.44,0,0,0,26.05,45.05,52.43,52.43,0,0,0,52.52,0,53.21,53.21,0,0,0,9.16-6.72,56.08,56.08,0,0,0,8.94,6.41,52.41,52.41,0,0,0,52.51,0,51,51,0,0,0,25.75-44.75v-274h85.1v44.53A32.35,32.35,0,0,0,501,470.86h40a32.34,32.34,0,0,0,32.45-32.15V394.18h2.7a17,17,0,0,0,0-34ZM53.7,436.86V317.2H90.31V436.86ZM349.44,668.18v.07a17,17,0,0,1-8.82,15.26,18.35,18.35,0,0,1-18.38,0c-3.54-2.06-9.47-6.74-9.42-15V446a17,17,0,0,0-34,0V668.5s0,0,0,0A16.91,16.91,0,0,1,270,683.81a18.35,18.35,0,0,1-18.38,0,17.8,17.8,0,0,1-9.12-15.56V394.18H349.44v274Zm17-436.8a17,17,0,0,0-17,17v111.8H242.51V248.08a17,17,0,0,0-34,0v112.1h-26V248.68a58.38,58.38,0,0,1,58.17-58.46H351.13a58.31,58.31,0,0,1,58.32,58.3V360.18h-26V248.38A17,17,0,0,0,366.44,231.38Zm136.1,205.48V317.2h36.92V436.86Z"/></g></g></g></svg>