<svg xmlns="http://www.w3.org/2000/svg" viewBox="0 0 583.96 720.19"><defs><style>.cls-1{fill:#4d4d4d;}</style></defs><title>Asset 7</title><g id="Layer_2" data-name="Layer 2"><g id="Layer_1-2" data-name="Layer 1"><path class="cls-1" d="M576.36,273.19a46.36,46.36,0,0,0-14.56-13.73,39.46,39.46,0,0,0-14.32-5.15,52.92,52.92,0,0,0-8-.55H464.87V202.44h0a44.79,44.79,0,0,0-44.73-44.73H335.75a52.68,52.68,0,0,0-26.9,7.69h0L196.31,233.73l-.31.21-.31.18-.58.42-.33.24c-13.23,9.35-21.11,26.15-21.11,45.23V380.88a44.27,44.27,0,0,0,23.88,39.29,43.85,43.85,0,0,0,20.39,5,44.53,44.53,0,0,0,8-.73,45,45,0,0,0,24.47-13,42.65,42.65,0,0,0,12.27-30.57V303.32a3.65,3.65,0,0,1,1.93-3.32h0l27.17-13.69v123.5a16.43,16.43,0,0,1-6.45,12.92h0L20.54,620.85c-.11.08-.21.18-.31.26a3.81,3.81,0,0,0-.32.24,54.93,54.93,0,0,0,65.22,88.22l.07,0,.47-.31.25-.19.4-.27L368.58,497.35l80,66.11V668.62c0,28,25.36,51.57,55.38,51.57s54.58-23.13,54.58-51.57V534h0a49.69,49.69,0,0,0-17.75-38.35l0,0L470.42,437h0a15.16,15.16,0,0,1-5.53-11.85V343.22H539.5a44.45,44.45,0,0,0,41-27.4c.22-.55.43-1.1.63-1.66A45.32,45.32,0,0,0,576.36,273.19Zm-72.43,413c-11,0-21.38-8.54-21.38-17.57V562.93h0a33.08,33.08,0,0,0-12.16-25.53l0,0,0,0h0l-90.39-74.72-.33-.25c-.28-.22-.57-.44-.86-.64l-.57-.37-.83-.5-.69-.36-.76-.35-.81-.33-.71-.25-.88-.26-.69-.17c-.3-.07-.6-.12-.9-.17l-.73-.11-.86-.08-.81,0h-.78l-.88,0-.71.07-.94.13-.67.14c-.31.06-.61.14-.92.22l-.69.21c-.28.09-.57.18-.84.29l-.77.32q-.36.15-.72.33c-.28.14-.57.29-.85.45l-.59.35c-.3.18-.59.38-.88.59l-.35.24L66.43,681.18a20.94,20.94,0,0,1-25.05-33.46L305.74,450h0a50.34,50.34,0,0,0,20.08-40.14V258.71c0-.14,0-.28,0-.42,0-.36,0-.72-.06-1.08s-.05-.45-.07-.68-.09-.63-.15-.95-.11-.54-.18-.8-.12-.53-.2-.79-.19-.62-.3-.92-.15-.43-.23-.64-.29-.67-.44-1c-.06-.12-.11-.25-.17-.37l-.1-.17c-.16-.32-.34-.62-.52-.92l-.35-.58c-.16-.25-.33-.48-.51-.71s-.32-.46-.5-.68-.29-.33-.44-.5-.44-.51-.68-.75l-.4-.37c-.26-.25-.53-.5-.81-.74l-.47-.36c-.27-.21-.53-.42-.81-.61s-.46-.28-.68-.42l-.69-.42c-.3-.16-.6-.31-.91-.45s-.35-.18-.54-.26-.67-.27-1-.39l-.52-.19c-.32-.1-.64-.19-1-.27l-.65-.17c-.27-.06-.55-.1-.83-.14l-.86-.14-.67,0c-.36,0-.71-.05-1.07-.05h-.19l-.41,0c-.36,0-.73,0-1.09.05l-.67.08q-.48.06-1,.15l-.8.17c-.26.06-.53.13-.79.21s-.62.19-.92.3-.42.14-.64.23-.67.28-1,.44c-.13.06-.26.1-.38.17l-51.84,26.12h0a37.48,37.48,0,0,0-20.59,33.66v77.56a8.84,8.84,0,0,1-2.5,6.72A11.21,11.21,0,0,1,219.9,391a10.19,10.19,0,0,1-6.54-.89,10.72,10.72,0,0,1-4.25-4,10.23,10.23,0,0,1-1.44-5.23V280c0-7.69,2.72-14.69,6.78-17.52l112-68h0a18.55,18.55,0,0,1,9.26-2.75h84.39a10.88,10.88,0,0,1,10.73,10.74V425.09a49.31,49.31,0,0,0,17.74,38l0,0L519,521.73h0A16,16,0,0,1,524.51,534V668.62C524.51,679.13,513.87,686.19,503.93,686.19ZM464.87,287.76H539.5a21.42,21.42,0,0,1,3,.17,6,6,0,0,1,2,.79,12.54,12.54,0,0,1,3.82,3.67,11.15,11.15,0,0,1,.85,10.2c-.06.16-.12.33-.19.5a10.31,10.31,0,0,1-9.47,6.13H464.87Z"/><path class="cls-1" d="M378.59,144.52a72.26,72.26,0,1,0-72.26-72.26A72.35,72.35,0,0,0,378.59,144.52Zm0-110.52a38.26,38.26,0,1,1-38.26,38.26A38.31,38.31,0,0,1,378.59,34Z"/></g></g></svg>