<svg xmlns="http://www.w3.org/2000/svg" viewBox="0 0 608.19 718.15"><defs><style>.cls-1{fill:#4d4d4d;}</style></defs><title>Asset 4</title><g id="Layer_2" data-name="Layer 2"><g id="Layer_1-2" data-name="Layer 1"><path class="cls-1" d="M607,365.54a41.76,41.76,0,0,0-28.92-30.69l-.18-.07-68.15-21.2L472.15,197.63v0a0,0,0,0,0,0,0A55.29,55.29,0,0,0,434.4,161.8l-.12,0-50.64-14.55h-.06l-.06,0a260.5,260.5,0,0,0-228,43.51c-.48.37-.94.77-1.38,1.18l-46.22,35.19-.12.11a44.42,44.42,0,0,0-18.13,41.56,45.69,45.69,0,0,0,73.8,30.67h0l64.1-48.48h0l0,0a53.16,53.16,0,0,1,42-9.75h.1l.1,0,7.81,1.38L230.19,397.2h0v0a51.36,51.36,0,0,1-8.07,16.24L151,507.22,72.77,469.81l-.09-.05-.1,0A51.54,51.54,0,0,0,34,467.63a49.88,49.88,0,0,0-29,25.92,51.62,51.62,0,0,0,23.93,68.27l.09,0,.05,0,102.35,49h0a69.74,69.74,0,0,0,30,6.78,68.76,68.76,0,0,0,55-27.49h0l87.25-115.27h0a1.26,1.26,0,0,1,.32-.31l105.4,69.23V667.75c0,.07,0,.13,0,.19v.18a51.14,51.14,0,0,0,51.2,50c27.8,0,50.05-22,50.66-50v-.18c0-.06,0-.12,0-.19V526.62h0A69.19,69.19,0,0,0,480,468.84h0l0,0h0l-78.59-52.22,0,0h0a2.22,2.22,0,0,1-.56-.53l22.46-73.37,4.3,13.12h0a52.19,52.19,0,0,0,34.36,33.58h0l91,27.48.08,0a41.78,41.78,0,0,0,12.44,1.92,42.5,42.5,0,0,0,28.92-11.59A43.19,43.19,0,0,0,607,365.54ZM460.56,684.15a17.08,17.08,0,0,1-17.21-16.71v-129a24.36,24.36,0,0,0-10.87-20.12h0L322.57,446.16l0,0c-15.15-9.95-34.92-6.4-46,8.27h0L189.25,569.69h0A34.89,34.89,0,0,1,146,580.23l-102.2-49a17.49,17.49,0,0,1-8.19-23.1c4-8.31,13.91-11.65,22.65-7.62l85.48,40.86h0A23.71,23.71,0,0,0,154,543.74a24.19,24.19,0,0,0,19.23-9.52l0,0,76-100.2h0a84.39,84.39,0,0,0,13.45-26.78l0,0,50.63-164.84v0h0a25,25,0,0,0-2.3-20.23A24.41,24.41,0,0,0,294.29,211h-.09l-.1,0-18.31-3.24h0a87.23,87.23,0,0,0-68.65,16.1h0L143,272.27a3,3,0,0,1-.27.23l-.27.2a11.41,11.41,0,0,1-11.68,1.74,11.81,11.81,0,0,1-7.31-9.61A10.51,10.51,0,0,1,128,254.49l.21-.17.3-.21L175.93,218a15.09,15.09,0,0,0,1.22-1,227.82,227.82,0,0,1,197.2-37.07l50.54,14.52.08,0h0a21.4,21.4,0,0,1,14.81,13.71h0l39.3,121.15h0v0A24,24,0,0,0,495,344.59l.08,0,72.72,22.63a1.41,1.41,0,0,1,.22.06l.16.05a7.59,7.59,0,0,1,5.74,6.05,9.16,9.16,0,0,1-2.69,8.82c-2.57,2.37-5.34,3.1-8.23,2.17l-.16,0-.16-.05-91-27.46h0a18.38,18.38,0,0,1-12-11.66h0l-21-64.1c-.06-.17-.13-.33-.19-.49s-.23-.62-.36-.93-.23-.5-.35-.75-.23-.48-.36-.71-.32-.54-.48-.81l-.38-.59c-.18-.26-.37-.52-.56-.77l-.44-.55c-.19-.23-.39-.45-.6-.67s-.35-.38-.54-.57-.39-.37-.59-.55l-.66-.56c-.19-.16-.39-.3-.59-.44s-.5-.37-.76-.54l-.62-.38c-.26-.15-.52-.31-.79-.45s-.49-.24-.74-.35l-.75-.34c-.3-.12-.62-.23-.94-.34l-.48-.17-.14,0c-.36-.11-.73-.19-1.09-.27a5.66,5.66,0,0,0-.56-.13c-.35-.07-.71-.11-1.07-.16l-.6-.08c-.32,0-.64,0-1,0l-.72,0-.79,0c-.3,0-.6,0-.89.06l-.65.1c-.34.05-.68.1-1,.17l-.6.16c-.35.08-.69.17-1,.28l-.15,0-.53.2c-.29.11-.59.21-.87.34s-.53.24-.79.37l-.68.34c-.29.16-.56.33-.83.5s-.38.23-.57.36-.53.38-.79.58l-.54.42c-.23.2-.46.4-.68.61s-.37.35-.55.53-.38.4-.56.6-.38.43-.56.66l-.45.59c-.18.24-.36.49-.53.75l-.38.62c-.15.26-.31.53-.45.8s-.24.48-.35.73-.23.5-.34.75-.23.62-.33.93-.13.33-.18.5l-38.25,125h0c-4.39,14.43,1.39,29.89,14.39,38.5h0l0,0h0l78.59,52.22,0,0h0a35.3,35.3,0,0,1,16.06,29.44V667.44C477,677,469.84,684.15,460.56,684.15Z"/><path class="cls-1" d="M436.16,141.2a70.6,70.6,0,1,0-70.6-70.6A70.68,70.68,0,0,0,436.16,141.2Zm0-107.2a36.6,36.6,0,1,1-36.6,36.6A36.64,36.64,0,0,1,436.16,34Z"/></g></g></svg>