<svg xmlns="http://www.w3.org/2000/svg" viewBox="0 0 717.97 708.16"><defs><style>.cls-1{fill:#4d4d4d;}</style></defs><title>Asset 19</title><g id="Layer_2" data-name="Layer 2"><g id="Layer_1-2" data-name="Layer 1"><path class="cls-1" d="M365.3,151.8a64.94,64.94,0,1,0-64.93-64.94A65,65,0,0,0,365.3,151.8Zm0-95.88a30.94,30.94,0,1,1-30.93,30.94A31,31,0,0,1,365.3,55.92Z"/><path class="cls-1" d="M715.52,46.07C710.57,27.8,698,12.51,681.82,5.18,668.2-1,651.58-1.68,636.19,3.3c-13,4.19-25.37,12.38-35.9,23.68C587.38,40.83,579.05,57.19,576.2,74.3c-3.64,21.82,2.2,42.8,16.11,58.71l-37.78,57.11a43.55,43.55,0,0,0-25.7.44h0l-.77.25-.43.17-.42.15-75,30.62-65.51-43-.07-.05-.15-.09c-.14-.1-.3-.18-.45-.27-.31-.19-.61-.38-.94-.55s-.62-.3-.93-.44l-.52-.25-.12,0-.2-.08a43.55,43.55,0,0,0-5.59-1.85h-.08l-99.79-25.71h-.05a39.91,39.91,0,0,0-10.69-1.14h0l-90.32,2L134.17,77h0c-12-20.56-37.28-27.4-57.67-15.56a42.63,42.63,0,0,0-15.44,58.2h0L117,216h0a39.52,39.52,0,0,0,34.11,19.8H152l50.79-1.14-58.68,170s0,0,0,0l0,.05-38.6,114.26h0a10.84,10.84,0,0,1-1.93,3.52L9.86,636.54h0A43.1,43.1,0,0,0,.26,668.79a44,44,0,0,0,15.91,29.4,43.38,43.38,0,0,0,27.69,10c1.45,0,2.91-.08,4.38-.22a43.56,43.56,0,0,0,29.52-15.76v0l92.81-112.72h0a32.89,32.89,0,0,0,3.22-4.79c.12-.2.23-.4.36-.61h0q.33-.56.63-1.14L232.11,458.5l54.56,71.71a4.15,4.15,0,0,0,.27.32c.12.15.23.32.36.47a11.1,11.1,0,0,1,2.84,9h0L271.76,657.59h0a43.81,43.81,0,0,0,86.58,13.51h0l22.35-144h0a45.35,45.35,0,0,0-5.94-30.41h0l-49-80.54a6,6,0,0,1-.47-4.74h0l44-139,50.84,33.48,0,0a50.27,50.27,0,0,0,46.64,4.6h.05l93.39-38c.16-.06.31-.15.47-.22l.4-.16c.22-.1.43-.22.65-.33l.08,0a44.15,44.15,0,0,0,15.72-65.71l38.1-57.6a63.86,63.86,0,0,0,32.83,2.62c13-2.4,25.69-8.62,36.78-18A94.41,94.41,0,0,0,711.71,96.5C718.44,79.78,719.8,61.87,715.52,46.07ZM320.84,672.26a9.82,9.82,0,0,1-15.49-9.43h0l18.38-117.62h0a45.07,45.07,0,0,0-10.07-35.65l-71-93.34c-.07-.1-.16-.19-.23-.29-.22-.27-.45-.54-.68-.8l-.48-.51c-.22-.22-.44-.44-.68-.65s-.41-.37-.62-.54-.41-.33-.62-.49-.52-.39-.79-.56-.37-.25-.56-.36-.63-.37-.94-.54c-.11-.05-.21-.12-.31-.17l-.24-.11c-.32-.15-.64-.29-1-.42l-.64-.26c-.28-.1-.56-.18-.85-.27l-.8-.23-.72-.15-.93-.18-.65-.07c-.33,0-.65-.07-1-.09h-1.61c-.27,0-.55,0-.82.07s-.52,0-.77.08-.63.11-1,.17l-.63.13c-.34.08-.66.18-1,.27l-.59.19c-.31.1-.61.23-.91.35s-.44.17-.65.27-.51.25-.77.39-.51.26-.76.41l-.6.38c-.29.19-.58.38-.86.59-.07.05-.15.09-.22.15a3,3,0,0,0-.27.23c-.28.22-.56.45-.82.69l-.49.46c-.23.23-.46.46-.67.69s-.36.4-.53.61l-.51.64c-.19.25-.37.51-.54.77l-.38.58c-.18.3-.35.61-.51.92l-.19.32L144.64,557.16c-.09.17-.2.34-.29.5l-.27.46L51.52,670.54h0a9.77,9.77,0,0,1-13.76,1.37,10.18,10.18,0,0,1-3.69-6.78,9.41,9.41,0,0,1,2.06-7h0L129.85,544.2h0A45.18,45.18,0,0,0,137.72,530h0l38.57-114.2,60-173.93h0a30.78,30.78,0,0,0-30.18-41.22h0l-54.83,1.23h0a5.51,5.51,0,0,1-4.82-2.88h0l-56-96.35h0a8.6,8.6,0,0,1,3.11-11.73,8.07,8.07,0,0,1,11.2,3.25h0l45.94,79q.3.51.63,1a22.81,22.81,0,0,0,19.13,10.22H171l96.78-2.15h0a5.86,5.86,0,0,1,1.55.1h0L369.16,208h.06l.2.05L440.88,255l.07.05h0c.34.22.69.44,1.05.64l.68.34c.14.07.27.15.41.21.33.16.67.3,1,.43l.11.05c.38.14.76.27,1.15.39h0c.38.11.76.21,1.15.3h.05c.35.08.69.14,1,.19l.21,0,.78.09c.56,0,1.12.09,1.69.09h.21c.38,0,.75,0,1.13-.05l.49-.05q.64-.06,1.29-.18l.35-.08c.39-.08.77-.18,1.15-.28l.31-.09a14.17,14.17,0,0,0,1.38-.49l.11,0,82.69-33.75a9.74,9.74,0,0,1,12,5.57,10.34,10.34,0,0,1-4.65,12.88L454,279h0a16.28,16.28,0,0,1-15.14-1.51h0l-51.15-33.7h0A33.29,33.29,0,0,0,358,239.9a34.22,34.22,0,0,0-21,21.88h0L292.87,401.15h0a39.75,39.75,0,0,0,3.82,32.63h0l49,80.54h0a11,11,0,0,1,1.41,7.55h0l-22.36,144h0A9.71,9.71,0,0,1,320.84,672.26ZM685.74,86a66.15,66.15,0,0,1-18.58,25.7c-7.36,6.23-15.58,10.32-23.76,11.83-8.41,1.55-16.44.15-25.18-4.4l-1.67-1.33c-10.73-10-15.26-23.81-12.73-38.94,1.91-11.49,7.94-23.15,16.95-32.83,7.29-7.82,15.61-13.4,24.05-16.13,8.82-2.86,18.09-2.59,25.43.74,8.5,3.86,15.49,12.56,18.24,22.71C691.19,63.34,690.21,74.94,685.74,86Z"/></g></g></svg>