<svg xmlns="http://www.w3.org/2000/svg" viewBox="0 0 362.53 719.72"><defs><style>.cls-1{fill:#4d4d4d;}</style></defs><title>Asset 6</title><g id="Layer_2" data-name="Layer 2"><g id="Layer_1-2" data-name="Layer 1"><path class="cls-1" d="M181.2,167.94a66.42,66.42,0,1,0-66.41-66.42A66.49,66.49,0,0,0,181.2,167.94Zm0-98.83a32.42,32.42,0,1,1-32.41,32.41A32.45,32.45,0,0,1,181.2,69.11Z"/><path class="cls-1" d="M322,418h0l-56.39-21.64V262.69A128.7,128.7,0,0,0,355.41,96h0v0h0L332.31,29.05l0-.1a.32.32,0,0,1,0-.09A43.49,43.49,0,0,0,250,57.2l0,.09s0,.05,0,.07l23.09,66.93h0A41.11,41.11,0,0,1,268,162a42,42,0,0,1-34.14,17.6H129A42,42,0,0,1,94.81,162a41.15,41.15,0,0,1-5.57-37.74h0l23.1-66.93a.14.14,0,0,1,0-.07l0-.09A43.3,43.3,0,0,0,30.55,28.87a.43.43,0,0,0,0,.05.08.08,0,0,0,0,0L7,95.89V96A129.39,129.39,0,0,0,96.88,262.68V669.5c-.06,17.61,9.7,34.24,25.52,43.42a50.6,50.6,0,0,0,50.67,0c15.79-9.17,25.16-25.2,25.13-42.93V635.35L338.63,522.63h0A61,61,0,0,0,322,418ZM198.2,549.24l66.69-53.5.11-.08,0,0,0,0c.39-.32.77-.65,1.13-1l.25-.25c.31-.31.6-.63.88-1,.07-.08.14-.15.2-.23.32-.39.63-.8.92-1.22l.21-.33c.19-.31.38-.62.56-.94s.2-.37.3-.56.25-.52.37-.78l.27-.62.09-.22c.06-.14.09-.28.14-.42.11-.32.22-.64.32-1s.13-.5.19-.76.13-.54.18-.81.1-.6.14-.89l.09-.71c0-.32,0-.64.06-1s0-.46,0-.69l0-.93c0-.25,0-.49-.07-.74s-.06-.56-.11-.84-.09-.56-.15-.84-.1-.48-.16-.72-.16-.6-.26-.9l-.21-.64c-.11-.31-.23-.61-.35-.91s-.19-.42-.29-.64-.27-.55-.42-.82-.27-.47-.41-.71-.27-.45-.42-.67-.39-.55-.59-.81l-.26-.37-.14-.15c-.23-.28-.47-.55-.72-.82l-.42-.44q-.36-.36-.75-.69l-.52-.46-.7-.52-.68-.49c-.2-.13-.42-.25-.62-.37s-.57-.34-.86-.49l-.58-.28c-.32-.15-.64-.3-1-.43l-.19-.09-73.2-28.18a17,17,0,1,0-12.21,31.73l45.6,17.56-50.13,40.21-.08.07c-.28.22-.54.47-.8.71s-.32.28-.47.43-.37.4-.55.59a16.6,16.6,0,0,0-2.32,3.2c0,.06-.07.11-.1.16-.12.24-.23.49-.35.73s-.26.51-.37.78l0,.09a16.75,16.75,0,0,0-1.08,3.94c0,.25-.09.5-.12.75s0,.44,0,.66,0,.7,0,1.05c0,0,0,.07,0,.1V669.86s0,0,0,0,0,0,0,.06c.06,7.61-5.11,11.75-8.2,13.54a16.5,16.5,0,0,1-16.53,0c-5.42-3.14-8.63-8.35-8.59-13.93V248.7c0-.18,0-.34,0-.51,0-.34,0-.67-.06-1s-.05-.48-.08-.71-.09-.64-.15-1-.1-.5-.16-.75-.14-.57-.22-.85-.17-.53-.26-.79l-.27-.75c-.11-.27-.24-.54-.36-.81s-.21-.45-.32-.67-.29-.53-.44-.78-.25-.43-.39-.64-.32-.48-.49-.72-.31-.42-.47-.62-.35-.42-.53-.63-.36-.41-.56-.61-.36-.37-.55-.54-.42-.4-.65-.59-.38-.31-.57-.47l-.72-.54-.62-.4-.76-.47c-.23-.13-.47-.24-.7-.36s-.5-.26-.76-.37-.54-.22-.81-.33l-.73-.26c-.3-.1-.61-.19-.92-.27s-.46-.13-.7-.18-.65-.13-1-.18l-.5-.1a95.28,95.28,0,0,1-77-124.76h0L62.57,40.31A9.44,9.44,0,0,1,74.49,34.5a9.3,9.3,0,0,1,5.66,11.91l-23,66.77h0a75.92,75.92,0,0,0,71.83,100.45H233.86A75.49,75.49,0,0,0,305.31,113.2h0l-23-66.76a9.49,9.49,0,0,1,18-6.12l23,66.77h0a94.7,94.7,0,0,1-77,124.76l-.5.1c-.33.05-.66.11-1,.18s-.47.12-.7.18-.62.17-.92.27l-.73.26c-.27.11-.54.21-.81.33s-.51.24-.76.37-.47.23-.7.36-.51.31-.76.47l-.62.4-.72.54c-.19.16-.39.31-.57.47s-.44.39-.65.59a7,7,0,0,0-.55.54c-.2.2-.38.4-.56.61s-.36.41-.53.63-.32.41-.47.62-.34.47-.49.72-.27.42-.39.64-.3.51-.44.77-.22.45-.32.68-.25.54-.36.81-.18.5-.27.75-.18.52-.26.79-.15.57-.22.85-.12.5-.17.75-.1.64-.14,1-.07.47-.09.71,0,.66,0,1c0,.17,0,.33,0,.51V408c0,.07,0,.14,0,.21,0,.36,0,.73.05,1.1,0,.21,0,.42.06.63s.08.62.14.93.08.52.14.77.12.49.19.73.15.6.25.9.14.39.21.58.24.65.38,1,.17.37.26.55.29.61.46.9.25.42.37.62.3.5.47.75.36.48.54.72.28.37.43.55.46.52.69.77l.41.43c.24.24.51.47.77.7l.46.4c.24.19.5.38.76.56s.39.3.6.43.45.28.68.41.53.32.81.47l.58.27c.33.16.66.31,1,.45l.19.08,67.32,25.84h0a27.1,27.1,0,0,1,17.31,20.82,27.79,27.79,0,0,1-9.77,25.61h0L198.2,591.75Z"/></g></g></svg>